<?xml version="1.0" encoding="UTF-8"?>
<svg xmlns="http://www.w3.org/2000/svg" viewBox="0 0 1363.37 320.44"><defs><style>.d,.e{fill:#fff;}.f{opacity:.96;}.f,.e{fill-rule:evenodd;}.f,.g{fill:#74bf44;}.h{fill:#ec1c24;}.i{fill:#2e368f;}.j{fill:#58595b;}</style></defs><g id="a"/><g id="b"><g id="c"><rect class="j" x="926.24" width="3.04" height="320.44"/><g><path class="f" d="M1171.91,251.99h-62.7c-16.75,0-30.33-13.74-30.33-30.69V99.14c0-16.95,13.58-30.69,30.33-30.69h223.82c16.75,0,30.33,13.74,30.33,30.69v122.16c0,16.95-13.58,30.69-30.33,30.69h-161.13Z"/><path class="d" d="M1087.41,140.9h27.04v10.81c8.77-8.95,17.72-12.5,29.46-12.5,18.65,0,29.28,11.57,29.28,33.38v54.64h-27.23v-50.91c0-11.93-3.54-17.72-12.12-17.72s-14.73,5.59-19.39,13.61v55.02h-27.04v-86.35Z"/><g><path class="g" d="M1053.79,105.43c9.1,0,16.12,7.03,16.12,16.13s-7.03,16.13-16.12,16.13-16.12-7.24-16.12-16.13,7.03-16.13,16.12-16.13"/><rect class="g" x="1037.67" y="140.59" width="31.7" height="87.34"/></g><path class="e" d="M1259.47,125.97c1.93,0,3.82,.5,5.66,1.49,1.84,.99,3.28,2.41,4.31,4.26,1.03,1.85,1.54,3.78,1.54,5.78s-.5,3.89-1.52,5.72c-1.01,1.83-2.43,3.26-4.26,4.27-1.82,1.01-3.73,1.52-5.73,1.52s-3.9-.51-5.73-1.52c-1.83-1.01-3.26-2.43-4.27-4.27-1.02-1.83-1.53-3.74-1.53-5.72s.52-3.93,1.55-5.78c1.03-1.85,2.47-3.27,4.31-4.26,1.84-.99,3.73-1.49,5.66-1.49m8.31,6.71c-.86-1.54-2.06-2.73-3.6-3.56-1.54-.83-3.11-1.24-4.72-1.24s-3.19,.41-4.72,1.24c-1.53,.83-2.73,2.01-3.6,3.56-.87,1.54-1.3,3.15-1.3,4.82s.43,3.25,1.27,4.77c.85,1.52,2.03,2.71,3.57,3.56,1.53,.85,3.12,1.27,4.78,1.27s3.25-.42,4.77-1.27c1.53-.85,2.72-2.04,3.56-3.56,.84-1.52,1.27-3.11,1.27-4.77s-.43-3.27-1.29-4.82m-4.58,7.79c.43,1.8,.72,3.04,.98,3.54h-1.72c-.21-.36-.5-1.47-.84-3.07-.38-1.78-1.09-2.45-2.6-2.51h-1.57v5.58h-1.66v-12.69c.84-.17,2.07-.29,3.19-.29,1.78,0,2.94,.35,3.74,1.07,.63,.55,1.01,1.43,1.01,2.45,0,1.68-1.09,2.81-2.42,3.27v.06c.98,.34,1.57,1.26,1.89,2.6m-1.14-5.76c0-1.66-1.2-2.39-2.96-2.39-.81,0-1.36,.07-1.65,.15v4.68h1.71c1.78,0,2.9-.97,2.9-2.45"/><path class="d" d="M1261.03,240.96c0,4.1-.77,7.68-2.3,11.01h-31.49c5.76-1.66,8.83-4.74,8.83-9.09,0-6.14-7.17-10.11-19.97-10.11-13.7,0-20.74,3.71-20.74,9.86,0,4.61,2.82,7.68,8.32,9.34h-31.74c-1.02-2.43-1.54-4.99-1.54-7.81,0-10.11,7.81-17.54,22.91-21.5-6.66-2.05-10.11-5.5-10.11-10.62,0-6.66,4.86-11.01,14.59-13.18-15.23-4.48-21.76-11.78-22.91-25.98-.26-2.18-.26-7.55,1.66-12.67,7.68-21.12,46.98-32.13,46.98-32.13l-2.82-4.99,18.94,5.76-3.07,17.15-3.97-4.35c-18.69,6.27-28.16,15.74-31.1,23.17-2.69,7.17-1.02,21.89,12.93,22.14,13.95,.26,19.46-11.01,15.36-20.35-4.22-9.47-16.9-8.83-16.9-8.83l17.92-12.29c4.28,1.3,7.89,3.02,10.85,4.8,8.29,4.99,14.32,13.51,14.37,23.19,0,.06,0,.11,0,.17,0,15.74-9.34,24.83-27.65,28.03-11.9,2.05-19.46,.13-19.46,6.91,0,5.76,7.55,4.99,23.81,7.04,18.56,2.43,28.29,11.39,28.29,25.34Z"/></g><g><path class="i" d="M526.85,115.87h8.04c0,6.96-1.82,11.54-5.25,13.68-3.5,2.15-9.34,3.17-17.59,3.17-11.44,0-18.31-1.94-20.67-5.87-2.2-3.91-3.4-10.07-3.4-18.56,0-7.69,1.56-13.2,4.76-16.61,3.17-3.41,9.57-5.11,19.17-5.11,6,0,11.13,.82,15.48,2.43,4.36,1.61,6.53,5.42,6.53,11.48v.61c-.11,.15-.11,.32-.11,.42v.42h-7.92c0-4.07-.98-6.73-2.98-7.97-1.98-1.26-5.37-1.85-10.02-1.85-7.26,0-11.79,.93-13.63,2.82-1.89,1.92-2.79,6.13-2.79,12.52v4.5c0,5.1,.69,8.9,2.12,11.44,1.38,2.55,5.59,3.81,12.61,3.81,6.08,0,10.19-.6,12.35-1.79,2.14-1.23,3.28-4.38,3.28-9.55Z"/><path class="i" d="M546.71,108.49c0-7.69,1.4-13.29,4.13-16.85,2.74-3.55,9.1-5.35,18.98-5.35,10.46,0,17.16,1.51,20.26,4.54,3.1,2.96,4.65,8.73,4.65,17.29,0,7.45-.91,13.42-2.84,18.03-1.88,4.58-8.42,6.86-19.56,6.86-9.73,0-16.37-1.25-20.06-3.75-3.68-2.5-5.55-8.02-5.55-16.5v-4.28Zm8.5-.14v5.88c0,.73,.06,1.47,.09,2.2,.19,1.84,.46,3.64,.93,5.32,.46,1.67,1.19,3.01,2.23,3.89,.8,.67,1.84,1.12,3.11,1.37,1.21,.25,2.51,.43,3.91,.49h5.44c4.69,0,8.25-.54,10.78-1.66,2.49-1.08,3.91-3.77,4.2-8.04,.07-.94,.11-1.82,.18-2.65,.04-.82,.04-1.71,.04-2.6,.11-.84,.14-1.66,.14-2.58v-2.57c0-5.57-.64-9.53-1.83-11.98-1.26-2.39-5.19-3.59-11.77-3.59h-1.74c-7.04,0-11.4,.88-13.11,2.72-1.74,1.79-2.61,5.95-2.61,12.33v1.47Z"/><path class="i" d="M616.14,67.68v64.69h-8.23V67.68h8.23Z"/><path class="i" d="M638.57,67.68v64.69h-8.25V67.68h8.25Z"/><path class="i" d="M691.18,118.58h8.37c0,6.66-2.11,10.72-6.39,12.12-4.29,1.42-9.81,2.13-16.75,2.13-10.16,0-16.76-1.58-19.78-4.83-2.98-3.23-4.57-8.98-4.57-17.15s1.22-13.95,3.55-18.13c2.34-4.22,8.86-6.3,19.64-6.3,10.21,0,16.71,1.43,19.72,4.28,2.95,2.83,4.49,8.44,4.58,16.85v3.38h-39.12c0,5.05,.71,9.1,2,12.09,1.26,3.09,5.53,4.62,12.82,4.62h4.69c.83,0,1.87-.06,2.84-.21,1.18-.09,2.35-.26,3.4-.5,1.07-.23,1.99-.59,2.79-1.07,.76-.44,1.26-1.02,1.56-1.79,.28-.76,.43-1.51,.55-2.24,.07-.31,.1-.57,.1-.91v-2.33Zm.22-12.9c0-5.6-.78-9.36-2.36-11.25-1.62-1.87-5.96-2.79-13.1-2.79-6.3,0-10.4,.96-12.41,2.91-1.96,1.94-2.93,5.69-2.93,11.14h30.8Z"/><path class="i" d="M758.38,87.15v48.09c0,6.96-1.94,11.6-5.88,13.8-3.84,2.24-9.83,3.38-17.86,3.38-6.93,0-12.24-.86-15.84-2.53-3.63-1.7-5.44-5.76-5.44-12.32l7.58,.1c.27,4.06,1.28,6.58,3.15,7.67,1.87,1.02,5.08,1.55,9.68,1.55,5.32,0,9.46-.6,12.46-1.75,2.92-1.18,4.35-4.28,4.35-9.44v-8.87c-1.43,2.31-3.55,3.94-6.3,4.72-2.77,.81-5.63,1.19-8.56,1.26-.49,.08-.96,.1-1.5,.1h-1.54c-8.73,0-14.45-1.95-17.12-5.82-2.68-3.85-4.02-9.02-4.02-15.5,0-7.17,1.06-13.12,3.16-17.91,2.18-4.72,8.4-7.11,18.71-7.11,3.61,0,6.97,.43,9.98,1.22,3.05,.81,5.55,2.54,7.57,5.2l-.38-5.85h7.81Zm-38.35,22.44v1.64c0,5.1,.69,9.09,1.96,11.85,1.32,2.82,5.6,4.23,12.91,4.23,4.29,0,7.73-.69,10.37-2.06,2.6-1.4,4.13-3.99,4.53-7.83,.15-1.31,.32-2.58,.35-3.92,.07-1.33,.11-2.62,.11-3.91,0-5.32-.67-9.53-1.94-12.72-1.35-3.17-5.81-4.74-13.41-4.74-6.01,0-10,.93-11.96,2.87-1.96,1.88-2.91,5.54-2.91,10.91v3.69Z"/><path class="i" d="M809.21,118.58h8.39c0,6.66-2.15,10.72-6.38,12.12-4.24,1.42-9.86,2.13-16.78,2.13-10.14,0-16.72-1.58-19.74-4.83-3.08-3.23-4.56-8.98-4.56-17.15s1.18-13.95,3.49-18.13c2.32-4.22,8.85-6.3,19.66-6.3,10.17,0,16.75,1.43,19.73,4.28,2.98,2.83,4.56,8.44,4.59,16.85v3.38h-39.07c0,5.05,.65,9.1,1.9,12.09,1.25,3.09,5.57,4.62,12.85,4.62h4.7c.92,0,1.88-.06,2.9-.21,1.13-.09,2.24-.26,3.37-.5,1.09-.23,2-.59,2.77-1.07,.74-.44,1.3-1.02,1.59-1.79,.25-.76,.43-1.51,.54-2.24,.03-.31,.07-.57,.07-.91v-2.33Zm.27-12.9c0-5.6-.79-9.36-2.4-11.25-1.58-1.87-5.96-2.79-13.1-2.79-6.24,0-10.39,.96-12.35,2.91-2,1.94-2.96,5.69-2.96,11.14h30.82Z"/><path class="h" d="M107.45,98.24h-8.13c0-2.5-.45-4.21-1.41-5.29-.89-1.02-2.96-1.59-6.04-1.72-1.47-.06-2.97-.11-4.49-.11h-6.25c-.6,0-1.21,.05-1.84,.11-1.11,.05-2.24,.2-3.37,.4-1.07,.15-2.04,.54-2.88,1.06-.72,.44-1.19,.96-1.38,1.61-.27,.62-.39,1.31-.49,2.01v1.56c0,2.73,.56,4.62,1.6,5.65,1.02,.95,3.19,1.58,6.52,1.7,1.03,.01,2.06,.06,3.12,.06h3.08c5.98,.03,11.4,.72,16.27,1.84,4.9,1.16,7.34,4.88,7.34,11.14,0,6.61-2.14,10.57-6.4,11.93-4.26,1.37-9.78,2.05-16.51,2.05h-1.88c-5.5-.07-10.52-.78-15.02-2.05-4.6-1.3-6.84-4.72-6.84-10.38v-.63c0-.21,.09-.44,.12-.62,0-.18,0-.4,.05-.68,.03-.14,.04-.4,.04-.61h8.17c0,4.17,.96,6.86,2.83,7.99,1.9,1.22,5.17,1.79,9.92,1.79h4.48c.95-.05,1.9-.1,2.93-.16,1.29-.05,2.6-.21,3.93-.49,1.33-.24,2.4-.62,3.22-1.16,.81-.43,1.38-1.06,1.73-1.85,.35-.77,.52-1.56,.61-2.39,.08-.4,.11-.79,.11-1.2v-1.13c0-3.58-1.07-5.66-3.3-6.22-2.21-.58-4.93-.87-8.14-.87h-.48c-.45-.09-.98-.11-1.45-.11h-1.58c-.37,0-.76,0-1.14-.01-.43-.08-.79-.1-1.17-.1-5.56-.19-10.33-.83-14.31-1.95-3.98-1.13-6-4.56-6-10.23,0-.63,.01-1.17,.04-1.74,.06-.62,.13-1.35,.21-1.95,.14-1.28,.49-2.54,1.02-3.75,.57-1.16,1.47-2.19,2.7-2.93,1.32-.88,2.87-1.53,4.67-1.95,1.74-.43,3.65-.79,5.58-.95,1.3-.09,2.59-.24,3.89-.24,1.28-.04,2.48-.08,3.54-.08h3.09c1.04,0,2.09,.05,3.16,.13,4.23,.19,8.05,.97,11.51,2.37,3.45,1.34,5.17,4.21,5.17,8.48v.88c-.07,.11-.15,.24-.15,.41v.38Z"/><path class="h" d="M130.26,67v64.67h-8.24V67h8.24Z"/><path class="h" d="M151.98,67v7.47h-8.26v-7.47h8.26Zm0,19.38v45.29h-8.26v-45.29h8.26Z"/><path class="h" d="M165.45,86.38h7.6v5.8c2.11-2.74,4.78-4.58,8.02-5.46,3.25-.84,6.75-1.28,10.46-1.28,7.4,0,12.53,1.15,15.5,3.54,2.91,2.31,4.4,6.57,4.4,12.72v29.97h-8.25v-29.42c0-4.56-.89-7.59-2.59-9.1-1.66-1.46-5.32-2.16-10.79-2.16s-9.17,.96-11.98,2.98c-2.81,2-4.21,5.31-4.21,9.89v27.81h-8.16v-45.29Z"/><path class="h" d="M270.98,86.48v48.08c0,6.97-1.96,11.6-5.87,13.81-3.93,2.24-9.86,3.35-17.83,3.35-7.02,0-12.29-.84-15.88-2.54-3.6-1.66-5.44-5.74-5.44-12.31l7.55,.1c.26,4.1,1.3,6.63,3.17,7.67,1.86,1.05,5.09,1.55,9.68,1.55,5.3,0,9.44-.59,12.41-1.75,2.95-1.17,4.41-4.28,4.41-9.36v-8.93c-1.46,2.38-3.53,3.94-6.32,4.71-2.75,.82-5.59,1.19-8.54,1.27-.48,.07-.97,.12-1.55,.12h-1.47c-8.77,0-14.5-1.98-17.18-5.84-2.62-3.86-4.03-9.05-4.03-15.5,0-7.14,1.09-13.14,3.24-17.88,2.17-4.74,8.34-7.11,18.65-7.11,3.66,0,7.02,.38,10,1.22,3.03,.78,5.55,2.52,7.56,5.18l-.35-5.84h7.81Zm-38.39,22.41v1.61c0,5.13,.69,9.12,1.99,11.87,1.3,2.81,5.61,4.24,12.87,4.24,4.26,0,7.73-.71,10.35-2.09,2.67-1.41,4.18-4.02,4.55-7.79,.2-1.31,.28-2.6,.38-3.91,.06-1.33,.12-2.64,.12-3.93,0-5.33-.7-9.54-1.98-12.72-1.35-3.15-5.82-4.73-13.42-4.73-6.01,0-10.01,.96-11.97,2.83-1.93,1.9-2.9,5.57-2.9,10.96v3.66Z"/><path class="h" d="M318.43,86.48v5.31h-20.95v27.83c0,2.58,.48,4.43,1.45,5.46,.92,1.08,3.03,1.65,6.27,1.65,3.61,0,5.86-.78,6.56-2.28,.73-1.44,1.11-3.4,1.11-5.77v-3.02h7.67c0,4.75-.83,8.62-2.55,11.84-1.67,3.13-6.04,4.74-12.91,4.74-6.03,0-10.2-.93-12.47-2.69-2.23-1.84-3.34-5.12-3.34-9.93v-27.83h-7.1v-5.31h7.1v-10.96h8.22v10.96h20.95Z"/><path class="h" d="M330.3,107.81c0-7.71,1.41-13.33,4.13-16.83,2.76-3.61,9.12-5.39,19.05-5.39s17.12,1.54,20.24,4.52c3.08,3.02,4.61,8.75,4.61,17.29,0,7.46-.92,13.45-2.83,18.07-1.9,4.55-8.43,6.85-19.62,6.85-9.68,0-16.37-1.23-20.06-3.79-3.71-2.47-5.53-8.03-5.53-16.49v-4.24Zm8.5-.12v5.86c0,.74,.05,1.43,.13,2.15,.14,1.94,.43,3.7,.92,5.36,.44,1.74,1.18,3,2.17,3.9,.84,.67,1.91,1.11,3.13,1.36,1.23,.24,2.54,.44,3.91,.52h5.42c4.67,0,8.29-.6,10.81-1.68,2.49-1.1,3.89-3.76,4.22-8.08,.07-.89,.11-1.76,.16-2.6,.04-.86,.04-1.74,.04-2.62,.1-.84,.12-1.73,.12-2.61v-2.59c0-5.55-.63-9.53-1.84-11.91-1.24-2.42-5.16-3.61-11.76-3.61h-1.76c-7.01,0-11.34,.91-13.09,2.73-1.72,1.87-2.61,5.95-2.61,12.36v1.47Z"/><path class="h" d="M391.48,86.38h7.56v5.8c2.12-2.74,4.76-4.58,8.03-5.46,3.26-.84,6.74-1.28,10.48-1.28,7.35,0,12.52,1.15,15.44,3.54,2.99,2.31,4.45,6.57,4.45,12.72v29.97h-8.26v-29.42c0-4.56-.85-7.59-2.57-9.1-1.72-1.46-5.29-2.16-10.83-2.16-5.16,0-9.16,.96-11.97,2.98-2.78,2-4.18,5.31-4.18,9.89v27.81h-8.13v-45.29Z"/><path class="h" d="M43.56,52.76h-.97c-3.61,.2-6.56,1.36-8.92,3.61-2.3,2.14-3.37,4.6-3.21,7.44,.15,2.87,1.44,5.18,4,7.1,2.37,1.75,5.14,2.65,8.3,2.65h.86c3.62-.19,6.56-1.37,8.99-3.59,2.29-2.14,3.39-4.63,3.26-7.47-.15-2.83-1.44-5.17-3.97-7.06-2.36-1.82-5.11-2.68-8.36-2.68h0Z"/><path class="h" d="M27.43,135.08c2.52,.55,5.07,.9,7.79,.9,7.99,0,15.3-2.67,21.18-7.14-2.23-2.48-4.06-5.35-5.43-8.43-6.33,8.49-16.83,14.27-23.55,14.67Z"/><path class="h" d="M54.91,71.63c-.06,.14-.19,.28-.35,.45-2.86,2.69-6.48,4.13-10.74,4.35l-1.04,.03c-3.79,0-7.16-1.12-10.01-3.29-2.53-1.89-4.13-4.23-4.78-6.89C12.01,69.59,0,83.78,0,100.74c0,13.69,7.85,25.54,19.22,31.36-.82-1.01-1.43-2.16-1.47-3.52-.08-1.32,.21-3.06,.82-5.17l7.71-26.31c.74-2.54,1.07-4.41,1-5.72-.06-.78-.48-1.45-1.34-2.05-.84-.53-1.99-.78-3.41-.72-.66,.04-1.45,.13-2.34,.19l.74-2.22,21.85-4.1,3.88-.21-11.33,39.18c-.59,2.22-.92,3.64-.89,4.37,.03,.42,.25,.74,.62,1.04,.43,.33,.87,.46,1.3,.44,.76,0,2.29-.44,3.02-.93,3.61-2.32,7.98-5.36,10.61-8.81-.95-2.86-1.54-5.87-1.54-9.07,0-11.65,6.73-21.72,16.45-26.73-2.59-4-6-7.46-9.98-10.13Z"/><g><path class="j" d="M111.22,263.66c-4.99-7.54-8.32-13.43-10.05-17.67-2.53-6.12-3.82-12.85-3.82-20.23s1.29-13.59,3.82-19.69c1.78-4.32,5.06-10.12,9.83-17.43h6.17c-4.2,7.84-6.94,13.79-8.29,17.88-1.94,5.9-2.92,12.42-2.92,19.57s.97,13.79,2.92,19.68c1.42,4.18,4.21,10.13,8.4,17.89h-6.05Z"/><path class="j" d="M169.72,206.85h-9.19v12.98h-20.8c-2.91,0-4.37,.98-4.37,3.01s2.39,3.02,7.17,3.02c.67,0,1.71-.04,3.07-.11,1.39-.08,2.41-.1,3.08-.1,4.77,0,8.61,1.02,11.51,3.11,3.35,2.4,5.03,5.91,5.03,10.52,0,3.96-1.39,7.29-4.13,10.01-2.77,2.73-6.12,4.1-10.09,4.1l9.6,7.95-5.11,5.79-31.53-26.16,5.38-5.71c5.13,4.45,8.24,7.05,9.28,7.71,3.58,2.29,7.43,3.49,11.52,3.49,2.15,0,4.01-.64,5.59-1.93,1.55-1.25,2.33-2.93,2.33-5.02,0-4.71-3.21-7.03-9.62-7.03-.88,0-2.21,.04-3.97,.16-1.75,.11-3.08,.16-3.96,.16-8.65,0-12.97-3.28-12.97-9.84,0-2.91,1.16-5.32,3.47-7.21,2.3-1.91,4.95-2.87,7.95-2.87h13.74v-6.03h-31.19v-5.15h48.21v5.15Z"/><path class="j" d="M214.98,201.71c-4.16-6.1-9.83-9.16-16.99-9.16s-12.83,3.06-17,9.16h7.95v5.15h-8.84v48.52h-7.72v-48.52h-4.92v-5.15h5.15c2.31-4.83,5.73-8.67,10.24-11.51,4.49-2.83,9.44-4.24,14.8-4.24s10.4,1.37,14.88,4.18c4.46,2.79,7.85,6.66,10.17,11.58h-7.73Z"/><path class="j" d="M240.25,206.85h-18.22c3.42,3.35,5.14,7.94,5.14,13.78,0,2.08-.26,4.08-.77,6h10.17v6.51h-11.08v-3.81c-2.44,5.74-7.12,9.46-13.99,11.19l17.6,14.99h-11.66l-27.05-23.26,5.07-5.51c3.33,2.97,5.17,4.54,5.48,4.69,2.14,1.61,4.27,2.39,6.42,2.39,3.26,0,6.12-1.23,8.61-3.71,2.48-2.45,3.71-5.31,3.71-8.59,0-6.93-2.53-11.82-7.58-14.65h-25.3v-5.15h53.45v5.15Z"/><path class="j" d="M307.45,206.85h-8.6v48.4h-7.71v-33.08c-3.5,.09-6.5,1.39-9.02,3.89-2.49,2.53-3.73,5.52-3.73,9.01,0,1.77,.37,3.51,1.11,5.21l-8.28-3.88c0-2.96,.33-5.49,1-7.56-2.44-4.44-6.16-6.67-11.12-6.67-3.63,0-6.71,1.25-9.25,3.74-2.53,2.48-3.77,5.56-3.77,9.19s1.25,6.69,3.77,9.17c2.54,2.49,5.62,3.75,9.25,3.75,3.85,0,7.06-1.55,9.66-4.61v9.1c-3.26,1.85-6.62,2.74-10.05,2.74-5.45,0-10.17-2.04-14.16-6.17-3.99-4.14-5.98-8.92-5.98-14.43s2.01-10.15,6.05-14c4.02-3.84,8.79-5.74,14.3-5.74s9.99,1.82,13.87,5.49v3.23c3.96-5.74,9.39-8.66,16.33-8.72v-8.05h-53.9v-5.15h70.21v5.15Z"/><path class="j" d="M356.76,206.85h-15.77v12.76h-19.69c-2.02,0-3.03,.84-3.03,2.52,0,1.58,1.47,2.53,4.36,2.84h6c10.69,0,16.04,5.12,16.04,15.43,0,4.54-1.8,8.33-5.38,11.36-3.57,3.01-7.67,4.51-12.29,4.51-5.14,0-9.5-1.64-13.08-4.92-3.57-3.27-5.34-7.45-5.34-12.52,0-.44,.01-1.26,.09-2.47h7.6v2.02c0,2.97,1.08,5.57,3.23,7.76,2.16,2.2,4.7,3.28,7.67,3.28s5.3-.92,7.17-2.77c1.9-1.87,2.85-4.24,2.85-7.16,0-3.74-1.89-6.08-5.68-7.03-1.4-.38-4.8-.58-10.14-.58-2.88,0-5.32-.73-7.23-2.25-2.22-1.62-3.34-3.85-3.34-6.68,0-6.73,3.67-10.08,11.02-10.08h11.68v-6.03h-28.17v-5.15h51.44v5.15Zm-4.47,17.33c0,3.29-1.61,4.92-4.81,4.92-2.99,0-4.48-1.56-4.48-4.69,0-3.36,1.49-5.03,4.48-5.03,1.33,0,2.45,.48,3.42,1.4,.93,.94,1.39,2.08,1.39,3.41Z"/><path class="j" d="M359.67,267.68h-8.05c-6.71-4.77-12.6-7.15-17.66-7.15l-.11-3.6c10.21,0,18.83,3.6,25.83,10.75Z"/><path class="j" d="M403.95,206.85h-13.43v22.79l-.66,.15c-2.08-5.61-6.05-8.42-11.91-8.42-3.72,0-6.83,1.25-9.36,3.71-2.53,2.46-3.78,5.55-3.78,9.28s1.22,6.79,3.66,9.22c2.43,2.41,5.51,3.63,9.21,3.63s6.84-1.19,9.25-3.57c2.4-2.39,3.59-5.49,3.59-9.29h8.16c0,5.9-2.03,10.85-6.09,14.86-4.05,4.03-9.08,6.03-15.04,6.03s-10.75-2.03-14.75-6.08c-4.02-4.05-6.03-9-6.03-14.81s2.01-10.78,6.03-14.88c4.01-4.1,8.9-6.15,14.64-6.15,1.8,0,3.53,.22,5.26,.68v-7.16h-29.18v-5.15h50.43v5.15Z"/><path class="j" d="M446.99,206.85h-45.62v-5.15h62.38v5.15h-9.05v48.65h-7.71v-32.44h-24.26c-3.13,0-5.69,1.04-7.65,3.13-1.97,2.09-2.98,4.71-2.98,7.83s1.01,5.74,2.98,7.76c1.97,2.06,4.52,3.08,7.65,3.08s5.73-1.06,7.76-3.18c2.04-2.13,3.09-4.74,3.09-7.88,0-4.01-1.8-7.09-5.37-9.17h9.26c1.87,3.07,2.81,6.24,2.81,9.5,0,4.77-1.77,8.87-5.31,12.32-3.56,3.41-7.7,5.12-12.48,5.12s-8.73-1.74-12.13-5.2c-3.38-3.46-5.09-7.55-5.09-12.24s1.72-8.95,5.09-12.36c3.4-3.38,7.51-5.1,12.36-5.1h24.26v-9.83Z"/><path class="j" d="M573.22,206.85h-39.24v8.83c3.64-2.98,7.79-4.47,12.42-4.47,5.52,0,10.24,1.93,14.21,5.81,3.93,3.86,5.9,8.58,5.9,14.08s-1.91,10.39-5.74,14.65c-3.84,4.27-8.52,6.38-14.03,6.38-3.07,0-6.05-.73-8.96-2.2v-8.97c2.45,2.31,5.25,3.46,8.39,3.46,3.44,0,6.43-1.32,9-3.94,2.57-2.62,3.86-5.65,3.86-9.02s-1.28-6.25-3.82-8.7c-2.52-2.48-5.48-3.74-8.81-3.74-2.98,0-5.76,1.06-8.29,3.13-2.74,2.16-4.13,4.69-4.13,7.63v25.71h-7.71v-7.85c-3.66,2.99-7.78,4.49-12.41,4.49-5.53,0-10.26-1.96-14.21-5.86-3.98-3.92-5.92-8.62-5.92-14.15s1.91-10.39,5.75-14.61c3.83-4.2,8.52-6.3,14.03-6.3,3.35,0,6.63,.89,9.84,2.68v9.73c-2.47-3.06-5.64-4.59-9.42-4.59-3.54,0-6.53,1.26-9.01,3.76-2.48,2.48-3.71,5.49-3.71,9s1.18,6.64,3.59,9.01c2.4,2.34,5.43,3.51,9.1,3.51s6.46-1.11,8.82-3.28c2.33-2.22,3.53-5.06,3.53-8.56v-25.62h-37.01v-5.15h83.96v5.15Z"/><path class="j" d="M640.88,206.85h-8.62v48.4h-7.72v-33.08c-3.5,.09-6.49,1.39-9,3.89-2.49,2.53-3.73,5.52-3.73,9.01,0,1.77,.35,3.51,1.09,5.21l-8.25-3.88c0-2.96,.32-5.49,1-7.56-2.47-4.44-6.17-6.67-11.15-6.67-3.62,0-6.71,1.25-9.22,3.74-2.52,2.48-3.79,5.56-3.79,9.19s1.26,6.69,3.79,9.17c2.51,2.49,5.59,3.75,9.22,3.75,3.88,0,7.1-1.55,9.69-4.61v9.1c-3.28,1.85-6.63,2.74-10.07,2.74-5.44,0-10.15-2.04-14.13-6.17-3.99-4.14-5.99-8.92-5.99-14.43s2.01-10.15,6.03-14c4.05-3.84,8.81-5.74,14.31-5.74s10,1.82,13.87,5.49v3.23c3.95-5.74,9.4-8.66,16.33-8.72v-8.05h-53.89v-5.15h70.23v5.15Z"/><path class="j" d="M628.01,198.33c-2.08,.42-3.9,1.7-5.45,3.94-3.08-1.64-5.82-4.15-8.31-7.49-2.82-3.88-4.94-6.38-6.35-7.51-3.06-2.36-7.42-3.81-13.09-4.34l5.47-4.81c4.64,.59,8.51,2.12,11.62,4.58,1.42,1.11,3.86,3.72,7.29,7.83,2.9,3.5,5.85,6.12,8.83,7.8Z"/><path class="j" d="M698.8,206.85h-9.63v48.52h-7.71v-33.52h-11.52c2.76,3.73,4.14,7.79,4.14,12.28,0,5.81-2.03,10.71-6.04,14.71-4.03,3.99-8.95,5.98-14.77,5.98-4.47,0-8.4-1.16-11.85-3.47v-14.53c.45,2.86,1.78,5.2,4.03,7.05,2.24,1.86,4.8,2.81,7.73,2.81,3.35,0,6.3-1.27,8.83-3.81,2.53-2.53,3.81-5.49,3.81-8.83,0-2.91-1.12-5.66-3.31-8.27-2.2-2.61-4.74-3.9-7.66-3.9h-7.61v-6.06h34.22v-8.93h-42.39v-5.15h59.72v5.15Z"/><path class="j" d="M700.35,263.66c4.17-7.76,6.98-13.72,8.39-17.89,1.94-5.89,2.91-12.44,2.91-19.68s-.94-13.97-2.79-19.57c-1.2-3.58-4.01-9.54-8.39-17.88h6.14c4.77,7.31,8.06,13.11,9.85,17.43,2.52,6.1,3.8,12.67,3.8,19.69,0,7.39-1.28,14.12-3.8,20.23-1.71,4.24-5.08,10.13-10.07,17.67h-6.04Z"/></g></g></g></g></svg>