<svg xmlns="http://www.w3.org/2000/svg" width="207.772" height="202.37" viewBox="0 0 207.772 202.37">
  <g id="Group_159" data-name="Group 159" transform="translate(-255.157 -628.491)">
    <path id="Path_438" data-name="Path 438" d="M386.419,697.525l-.068-68.571H277.516v68h.029v.429c.183,33.822,15.187,55.9,44.536,65.719l2.675.9s1.423.422,2.15.616a18.65,18.65,0,0,0,5.26,1.041,16.125,16.125,0,0,0,4.955-1.041c1.339-.418,4.781-1.641,4.781-1.641C373.539,751.751,388.114,730.321,386.419,697.525Z" transform="translate(27.038 0.56)" fill="#fff"/>
    <path id="Path_439" data-name="Path 439" d="M323.171,677.889l.04-48.6H339.65v48.665h45.227v17.254H339.649v66.852l-7.769,2.918-8.669-2.932V695.209l-45.265-.081V677.956Z" transform="translate(27.559 0.967)" fill="#e50019"/>
    <path id="Path_440" data-name="Path 440" d="M301.1,659.284l-.01-5.121,4.862-.005v-1.086l-2.8.005v-2.454h9.125v2.453h-2.936v1.086h5v5.123h1.086V656.2h2.461v9.413h-2.461v-2.939h-1.084V667.4h-5v1.09h3.008v2.46h-9.467v-2.461h3.068V667.4H301.09v-4.729h-1.08v3.069h-2.469V656.2H300v3.082Z" transform="translate(51.253 26.763)" fill="#fff"/>
    <g id="Group_150" data-name="Group 150" transform="translate(313.515 704.706)">
      <path id="Path_441" data-name="Path 441" d="M291.874,666.144a7.146,7.146,0,1,0,7.134,7.138A7.151,7.151,0,0,0,291.874,666.144Zm0,13.028a5.88,5.88,0,1,1,5.877-5.89A5.9,5.9,0,0,1,291.874,679.172Z" transform="translate(-277.748 -659.174)" fill="#002581"/>
      <path id="Path_442" data-name="Path 442" d="M309.809,680.347v-6.489H307a11.5,11.5,0,0,0-1.023-2.457l1.984-1.986-4.584-4.591-1.982,1.984a12.357,12.357,0,0,0-2.466-1.014v-2.806h-6.48v2.806a12.216,12.216,0,0,0-2.468,1.014l-1.979-1.984-4.593,4.591L285.4,671.4a11.859,11.859,0,0,0-1.021,2.457h-2.808v6.489h2.808A11.772,11.772,0,0,0,285.4,682.8l-1.988,1.993,4.593,4.589,1.979-1.988a11.887,11.887,0,0,0,2.468,1.021v2.808h6.48v-2.808a11.867,11.867,0,0,0,2.466-1.021l1.982,1.988,4.593-4.589L305.98,682.8A11.373,11.373,0,0,0,307,680.347Zm-3.9-.778a10.441,10.441,0,0,1-1.255,3.009l-.254.429,1.789,1.785-2.81,2.8-1.789-1.787-.42.256a10.345,10.345,0,0,1-3.009,1.253l-.484.117v2.525h-3.963v-2.525l-.486-.117a10.323,10.323,0,0,1-3.018-1.253l-.413-.256-1.792,1.787-2.806-2.8L286.98,683l-.256-.422a10.586,10.586,0,0,1-1.246-3.009l-.115-.484H282.84v-3.972h2.523l.115-.484a10.484,10.484,0,0,1,1.246-3l.256-.424-1.781-1.785,2.806-2.806L289.8,668.4l.413-.263a10.7,10.7,0,0,1,3.018-1.242l.486-.117v-2.527h3.963v2.527l.484.117a10.13,10.13,0,0,1,3.009,1.242l.42.263,1.789-1.787,2.81,2.806L304.4,671.2l.254.424a10.623,10.623,0,0,1,1.255,3l.115.484h2.532v3.972h-2.532Z" transform="translate(-281.572 -662.989)" fill="#002581"/>
    </g>
    <path id="Path_443" data-name="Path 443" d="M387.681,698.089l-.068-69.6H277.147v69.017h.029v.435c.186,34.328,15.414,56.741,45.2,66.7l2.715.91s1.443.429,2.181.627a18.956,18.956,0,0,0,5.34,1.054,16.341,16.341,0,0,0,5.028-1.054c1.359-.426,4.854-1.666,4.854-1.666C374.608,753.126,389.4,731.376,387.681,698.089ZM284.32,650.2c.126-.192.844-.2,1.182-.139a3.567,3.567,0,0,1,1.513,1.06,1.168,1.168,0,0,1,2.28.362c-.208.25-.1.36-.274.592-.208.287-.742.353-.775.645-.049.329.521.663.722.873.32.314.53.552.778.828a4.633,4.633,0,0,1,.826.409,2.613,2.613,0,0,0,2.508-1.2,3.234,3.234,0,0,0,.316-1.465c.035-.323.137-.53-.042-.826-.9.037-1.083-.647-1.37-1.226a1.739,1.739,0,0,1,1.412-1.474c.3.177.707.234,1,.413a1.524,1.524,0,0,1-.179,2.108c.179.722,1.027,1.164,1.918,1.469a4.11,4.11,0,0,0,.594.135c.113.026.2.128.276.137a3.343,3.343,0,0,0,2.777-.919,5.513,5.513,0,0,0,.822-1.829c-.334-.068-.535.2-.822.232a1.867,1.867,0,0,1-1.827-2.426A2.478,2.478,0,0,1,299,646.89c.389-.015.687,0,.959-.035.141-.2-.035-.4-.088-.55-.239-2.136,1-3.139,1.586-4.586h.1c.824.568,1,1.8,1.593,2.614.026.521.369.868.32,1.372-.038.365-.285.7-.232,1.151a2.058,2.058,0,0,1,2.1,1.24,1.8,1.8,0,0,1-2.6,2.019c-.135,1.149.736,1.694,1.279,2.331a3.659,3.659,0,0,0,2.777.32c.8-.214,2.147-1.01,2.181-1.46.026-.278-.44-.6-.495-.919-.166-.859.3-1.089.683-1.562a2.378,2.378,0,0,1,1.226,0c1.133.4.979,2.711-.588,2.516-.27,1.781.614,3.276,2.008,3.491a2.037,2.037,0,0,0,1.456-.365,7.16,7.16,0,0,0,1.778-1.79c-.053-.225-.327-.225-.543-.276a1.24,1.24,0,0,1,0-1.968c.188-.057.426-.057.543-.19a1.269,1.269,0,0,1,1.091.78,2.954,2.954,0,0,1,2.876-.868c-.431.616-1.131,1.007-1.6,1.6-.444.57-.8,1.257-1.235,1.876-.214.314-.44.6-.632.919a24.22,24.22,0,0,0-2.512,5.322h-22.8c-.393-.961-.691-1.812-1.136-2.8-.1-.212-.292-.373-.42-.588-.135-.243-.181-.543-.316-.784-.451-.786-.981-1.593-1.456-2.342a16.293,16.293,0,0,0-1.456-1.918c-.214-.245-.42-.566-.594-.738S284.256,650.531,284.32,650.2Zm28.906,11.733c-.3.844-1.332.773-2.366.773H292.024a3.41,3.41,0,0,1-1.421-.135,1.148,1.148,0,0,1,.331-2.154c6.038-.075,12.639-.042,18.874-.042C311.466,660.375,313.527,659.986,313.226,661.932Zm9.186,100.707c-28.124-9.811-42.736-31.586-43.434-64.782h43.434Zm53.575-35.591-11.685-.881a5.936,5.936,0,0,1-1.2.568,3.651,3.651,0,0,1-1.136.188,4.256,4.256,0,0,1-1.226-.188,6.743,6.743,0,0,1-1.33-.568l-11.76.881V709.1l1.527-.082-.508.99v15.9l11.126-.685a3.018,3.018,0,0,0,2.019.678,3.07,3.07,0,0,0,2.046-.678l11.082.685v-15.9l-.676-1.12,1.725.089Zm-21.973-4.927a20.447,20.447,0,0,1,2.472-.161,6.759,6.759,0,0,1,3.639.762,3.232,3.232,0,0,1,1.339,2.5,2.581,2.581,0,0,1-1.478-.813l-10.107.813,1.323-2.62C352.193,722.387,353.143,722.23,354.014,722.122Zm-2.618-.265v-14.9a26.378,26.378,0,0,1,2.68-.528,20.548,20.548,0,0,1,2.569-.161,5.762,5.762,0,0,1,3.625.957,3.487,3.487,0,0,1,1.206,2.905V723.01q-1.561-1.73-5.128-1.73c-.572,0-1.284.051-2.112.137S352.454,721.653,351.4,721.857Zm-.692.086-1.356,2.644V710.152l1.356-2.483Zm23.151,3.281-10.147-.824a2.481,2.481,0,0,1-1.549.824q0-3.268,4.878-3.263a21.123,21.123,0,0,1,2.508.163c.915.108,1.909.283,2.974.508Zm-.952-3.281V707.728l1.359,2.576V724.53Zm-.68-.062a20.7,20.7,0,0,0-2.547-.453,22.062,22.062,0,0,0-2.532-.148,9.236,9.236,0,0,0-2.971.387,5.2,5.2,0,0,0-2.039,1.385v-12.9a3.4,3.4,0,0,1,1.047-2.839,6.154,6.154,0,0,1,3.886-1.05,18.328,18.328,0,0,1,2.337.161c.864.117,1.794.276,2.819.5Zm13.622-25.7H340.617v66.852a61.682,61.682,0,0,1-8,1.7,81.365,81.365,0,0,1-8.437-1.71V696.176l-45.263-.08V678.924h45.224v-.068h.04v-48.6h16.439v48.665h45.228Zm0-19.02H342.386V630.205h43.458Z" transform="translate(26.592 0)" fill="#002581"/>
    <g id="Group_151" data-name="Group 151" transform="translate(373.163 641.899)">
      <path id="Path_444" data-name="Path 444" d="M317.815,638.079c.643-.2.261-.935,2.346-1.215,1.191-.157,1.038-1.308,3.709-.764,1.2.241,1.571.985,1.887,2a3.559,3.559,0,0,0-2.1-.307c1.107-.139,1.593,1.46,1.692,1.842-1.253-1.244-2.554-.6-2.589-.351a1.928,1.928,0,0,1,2,1.114c-1.555-.528-4.217,1.831-5.258-.336C319.136,639.322,317.092,638.761,317.815,638.079Z" transform="translate(-297.579 -632.874)" fill="#e50019"/>
      <path id="Path_445" data-name="Path 445" d="M313.6,636.5h1.476l.859-1.944,1.18,2.2h1.407l1.975-1.215-1.975,2.742a16.535,16.535,0,0,0-5.36,0l-1.44-2.706Z" transform="translate(-304.756 -634.56)" fill="#e50019"/>
      <path id="Path_446" data-name="Path 446" d="M326.566,648.131c-.828.517-4.4.261-4.4.261s-.638-2.359.963-2.359S327.392,647.631,326.566,648.131Z" transform="translate(-292.285 -620.687)" fill="#e50019"/>
      <path id="Path_447" data-name="Path 447" d="M320.541,647.57c-.824.51-4.4.259-4.4.259s-.623-2.359.963-2.359S321.372,647.062,320.541,647.57Z" transform="translate(-299.567 -621.368)" fill="#e50019"/>
      <path id="Path_448" data-name="Path 448" d="M314.361,647.873c-.835.506-4.394.252-4.394.252s-.641-2.364.95-2.364S315.185,647.356,314.361,647.873Z" transform="translate(-307.038 -621.015)" fill="#e50019"/>
      <path id="Path_449" data-name="Path 449" d="M308.637,639.4s2.357-.641,2.357.954-1.593,4.273-2.1,3.444S308.637,639.4,308.637,639.4Z" transform="translate(-308.571 -628.864)" fill="#e50019"/>
      <path id="Path_450" data-name="Path 450" d="M340.627,652.327c.205-1.016-1.2-2.614-1.582-2.938-.219-.179-.128-.521-.011-.8a4.717,4.717,0,0,0-1.624-.97l.051-.252a5.377,5.377,0,0,1,1.681.974,1.188,1.188,0,0,1,.093-.159c3.248-.892,4.787-4.529,2.994-6.444-1.778-1.9-4.14-1.977-7.014-.875-2.863,1.069-4.9,1.142-5.8.822-1.927-.687-1.655-3.959-1.655-3.959-2.678,5.258,2.037,5.6,4.012,5.3,2.072-.325,3.374-1.1,6.316-.7,2.167.278,2.439,1.935,1.588,2.927a2.444,2.444,0,0,1-2.609.44c-1.27-1.012-7.584-.369-9.115-.243a3.816,3.816,0,0,1-2.751-1.215l-.921-2.021a5.134,5.134,0,0,1-.674,3.928c.444-2.121-.689-2.711.1-5.2l-1.432-3.146c-1.268-2.174-6.159-.74-6.159-.74a44.154,44.154,0,0,1-3.985,2.569c-.38.192.645,4.582,1.443,4.22.422-.194,2.7-.7,2.7-.7v2.105l-.959,2.426-5.216-.895-.968.895.389.57.292.343c2.167.371,7.167,4.31,7.167,4.31a33.974,33.974,0,0,0-3.464,3.63l2.262,1.4,4.326-4.706c5.227,1.911,8.866-2.3,9.434-1.79s-.186,1.144.066,2.362a9.2,9.2,0,0,1,0,2.1l-1.308.528,1.242,1.067a4.6,4.6,0,0,0,2.11-.636c.751-.437.82-2.678.566-3.06-.217-.329.8-1.133,1.074-1.35a4.375,4.375,0,0,0-3.983-1.847l-.04-.252a4.545,4.545,0,0,1,4.476,2.315l-.035.016c4.233,3.727,7.509,1.75,7.509,1.75a10.209,10.209,0,0,1,.179,3.263l1.354,1.573,1.076-6.685S340.45,653.348,340.627,652.327Zm-24.558-13.649c-.221.051-.415.011-.446-.093s.126-.25.331-.314.415,0,.44.1C316.427,638.491,316.279,638.621,316.069,638.679Zm1.359,12.758c-.674-1.454-.1-2.344-.93-5.384C317.969,647.763,317.863,649.367,317.427,651.437Zm.521-11.488a4.533,4.533,0,0,0-.327-2.046l.393.022A10.361,10.361,0,0,1,317.949,639.949Zm2.2,8.19c-.862-3.321.371-4.273,1.167-8.247C322.268,643.495,320.127,645.065,320.147,648.138Zm1.982,5.02v-1.451c1.215.751,3.181.691,5.916-.181A7.414,7.414,0,0,1,322.129,653.158Z" transform="translate(-307.888 -632.102)" fill="#e50019"/>
    </g>
    <path id="Path_451" data-name="Path 451" d="M321.164,706.705h2.044c0,1.767-.464,2.932-1.334,3.475a8.987,8.987,0,0,1-4.469.806c-2.907,0-4.655-.493-5.251-1.491a9.972,9.972,0,0,1-.864-4.717,6.034,6.034,0,0,1,1.211-4.22q1.206-1.3,4.871-1.3a11.328,11.328,0,0,1,3.935.616c1.107.411,1.659,1.379,1.659,2.918v.155a.182.182,0,0,0-.026.106v.106h-2.013c0-1.034-.25-1.71-.758-2.024a5.023,5.023,0,0,0-2.545-.471c-1.847,0-3,.237-3.466.716s-.709,1.558-.709,3.181v1.147a6.066,6.066,0,0,0,.539,2.905c.351.65,1.421.97,3.206.97a7.291,7.291,0,0,0,3.137-.455C320.873,708.819,321.164,708.02,321.164,706.705Z" transform="translate(67.878 85.578)" fill="#fff"/>
    <path id="Path_452" data-name="Path 452" d="M318.043,704.867a7.034,7.034,0,0,1,1.052-4.282c.7-.9,2.313-1.359,4.823-1.359,2.658,0,4.361.382,5.148,1.153.786.751,1.182,2.22,1.182,4.394a12.009,12.009,0,0,1-.722,4.582c-.479,1.164-2.141,1.743-4.971,1.743-2.474,0-4.162-.316-5.1-.952s-1.412-2.037-1.412-4.193Zm2.163-.036v1.494c0,.186.015.373.022.559a8.238,8.238,0,0,0,.236,1.354,1.927,1.927,0,0,0,.568.988,1.727,1.727,0,0,0,.791.349,6.176,6.176,0,0,0,.994.124H324.2a6.958,6.958,0,0,0,2.74-.422c.632-.274.994-.959,1.067-2.044.02-.239.029-.464.046-.674s.009-.435.009-.663a4.827,4.827,0,0,0,.038-.656v-.652a7.382,7.382,0,0,0-.466-3.044q-.48-.911-2.991-.91H324.2c-1.789,0-2.9.223-3.332.689s-.663,1.513-.663,3.135Z" transform="translate(76.046 85.538)" fill="#fff"/>
    <path id="Path_453" data-name="Path 453" d="M327.174,697.086v16.439h-2.09V697.086Z" transform="translate(84.56 82.949)" fill="#fff"/>
    <path id="Path_454" data-name="Path 454" d="M329.758,697.086v16.439h-2.1V697.086Z" transform="translate(87.676 82.949)" fill="#fff"/>
    <path id="Path_455" data-name="Path 455" d="M340.1,707.416h2.128c0,1.692-.537,2.724-1.624,3.08a13.816,13.816,0,0,1-4.259.539c-2.58,0-4.257-.4-5.024-1.226s-1.162-2.284-1.162-4.359a9.656,9.656,0,0,1,.9-4.609c.6-1.072,2.251-1.6,4.993-1.6,2.594,0,4.244.365,5.011,1.087.749.72,1.142,2.145,1.164,4.281v.862h-9.942a7.875,7.875,0,0,0,.51,3.073q.477,1.177,3.256,1.173h1.193a4.982,4.982,0,0,0,.72-.055,5.811,5.811,0,0,0,.866-.128,2.26,2.26,0,0,0,.707-.272.87.87,0,0,0,.4-.453,2.932,2.932,0,0,0,.139-.57.975.975,0,0,0,.024-.23v-.592Zm.057-3.279a4.737,4.737,0,0,0-.6-2.859c-.411-.475-1.516-.709-3.327-.709-1.6,0-2.644.243-3.155.738a4.024,4.024,0,0,0-.744,2.83Z" transform="translate(90.699 85.554)" fill="#fff"/>
    <path id="Path_456" data-name="Path 456" d="M348.906,699.4v12.222c0,1.77-.49,2.949-1.493,3.508a9.309,9.309,0,0,1-4.538.862,9.928,9.928,0,0,1-4.025-.643c-.921-.433-1.383-1.465-1.383-3.13l1.926.024c.069,1.034.325,1.672.8,1.951a5.541,5.541,0,0,0,2.459.393,9.1,9.1,0,0,0,3.166-.444c.742-.3,1.1-1.087,1.1-2.4v-2.253a2.7,2.7,0,0,1-1.6,1.2,8.451,8.451,0,0,1-2.174.318,2.359,2.359,0,0,1-.382.026h-.391c-2.218,0-3.672-.495-4.35-1.48A6.788,6.788,0,0,1,337,705.618a11.347,11.347,0,0,1,.8-4.551c.555-1.2,2.136-1.807,4.757-1.807a10.007,10.007,0,0,1,2.536.309,3.488,3.488,0,0,1,1.922,1.321l-.1-1.487Zm-9.745,5.7v.415a7.459,7.459,0,0,0,.5,3.013c.334.716,1.423,1.074,3.281,1.074a5.693,5.693,0,0,0,2.633-.524,2.353,2.353,0,0,0,1.151-1.99c.04-.331.082-.654.091-.994s.026-.665.026-.994a8.864,8.864,0,0,0-.493-3.232c-.342-.806-1.476-1.206-3.409-1.206-1.527,0-2.541.237-3.04.729a3.873,3.873,0,0,0-.738,2.773Z" transform="translate(98.973 85.578)" fill="#fff"/>
    <path id="Path_457" data-name="Path 457" d="M353.672,707.416H355.8c0,1.692-.546,2.724-1.622,3.08a13.837,13.837,0,0,1-4.264.539c-2.578,0-4.251-.4-5.015-1.226-.782-.822-1.16-2.284-1.16-4.359a9.73,9.73,0,0,1,.886-4.609c.59-1.072,2.249-1.6,5-1.6q3.877,0,5.013,1.087c.758.72,1.16,2.145,1.167,4.281v.862h-9.928a8.145,8.145,0,0,0,.482,3.073c.318.784,1.416,1.173,3.268,1.173h1.193a5.1,5.1,0,0,0,.738-.055,6.351,6.351,0,0,0,.857-.128,2.132,2.132,0,0,0,.7-.272.893.893,0,0,0,.4-.453,3.283,3.283,0,0,0,.135-.57,1.909,1.909,0,0,0,.018-.23v-.592Zm.068-3.279a4.674,4.674,0,0,0-.612-2.859c-.4-.475-1.513-.709-3.329-.709-1.584,0-2.64.243-3.137.738a3.976,3.976,0,0,0-.753,2.83Z" transform="translate(107.125 85.554)" fill="#fff"/>
    <path id="Path_458" data-name="Path 458" d="M273.776,702.361H271.71a1.976,1.976,0,0,0-.358-1.343,2.27,2.27,0,0,0-1.538-.437c-.373-.018-.753-.029-1.14-.029h-1.588a4.285,4.285,0,0,0-.468.029,6.393,6.393,0,0,0-.857.1,1.879,1.879,0,0,0-.731.27.724.724,0,0,0-.351.409,2.007,2.007,0,0,0-.124.51v.4a2.009,2.009,0,0,0,.406,1.436,2.689,2.689,0,0,0,1.657.431c.261,0,.524.015.793.015h.782a18.7,18.7,0,0,1,4.134.468c1.248.294,1.867,1.239,1.867,2.83,0,1.679-.543,2.686-1.626,3.031a13.979,13.979,0,0,1-4.2.521H267.9a14.858,14.858,0,0,1-3.818-.521,2.386,2.386,0,0,1-1.737-2.638v-.161a1.106,1.106,0,0,1,.029-.157.883.883,0,0,1,.013-.172.778.778,0,0,0,.011-.153h2.077c0,1.058.243,1.743.72,2.03a4.954,4.954,0,0,0,2.521.453h1.138c.241-.011.484-.024.745-.04a6.059,6.059,0,0,0,1-.126,2.161,2.161,0,0,0,.817-.294.938.938,0,0,0,.44-.471,1.986,1.986,0,0,0,.157-.608,1.555,1.555,0,0,0,.026-.3v-.287c0-.91-.272-1.44-.84-1.582a8.386,8.386,0,0,0-2.07-.219H269a1.829,1.829,0,0,0-.367-.029h-.4c-.093,0-.194,0-.289,0a1.614,1.614,0,0,0-.3-.026,15.473,15.473,0,0,1-3.639-.495c-1.012-.287-1.522-1.158-1.522-2.6,0-.159,0-.3.011-.44s.033-.342.053-.5a3.243,3.243,0,0,1,.259-.952,1.8,1.8,0,0,1,.685-.745,3.536,3.536,0,0,1,1.186-.5,9.4,9.4,0,0,1,1.418-.243c.331-.022.658-.06.99-.06s.63-.02.9-.02h.784c.265,0,.532.013.8.033a8.731,8.731,0,0,1,2.925.6,2.077,2.077,0,0,1,1.315,2.154v.225a.188.188,0,0,0-.035.1Z" transform="translate(8.687 85.441)" fill="#fff"/>
    <path id="Path_459" data-name="Path 459" d="M271.287,697.008V713.44h-2.094V697.008Z" transform="translate(16.973 82.855)" fill="#fff"/>
    <path id="Path_460" data-name="Path 460" d="M273.788,697.008v1.9h-2.1v-1.9Zm0,4.924V713.44h-2.1V701.932Z" transform="translate(19.991 82.855)" fill="#fff"/>
    <path id="Path_461" data-name="Path 461" d="M274.189,699.369h1.931v1.474a3.769,3.769,0,0,1,2.037-1.387,10.574,10.574,0,0,1,2.66-.327,6.422,6.422,0,0,1,3.939.9,3.945,3.945,0,0,1,1.118,3.232v7.618h-2.1V703.4a3.079,3.079,0,0,0-.658-2.311,4.559,4.559,0,0,0-2.742-.55,5.133,5.133,0,0,0-3.044.758,2.872,2.872,0,0,0-1.069,2.512v7.067h-2.075Z" transform="translate(23.015 85.419)" fill="#fff"/>
    <path id="Path_462" data-name="Path 462" d="M292.853,699.329v12.217c0,1.772-.5,2.949-1.493,3.508a9.387,9.387,0,0,1-4.531.851,9.8,9.8,0,0,1-4.036-.645c-.915-.424-1.383-1.458-1.383-3.128l1.918.026c.068,1.041.331,1.683.806,1.948a5.393,5.393,0,0,0,2.459.4,8.929,8.929,0,0,0,3.155-.446c.749-.3,1.12-1.087,1.12-2.379v-2.269a2.622,2.622,0,0,1-1.606,1.2,8.248,8.248,0,0,1-2.172.323,2.374,2.374,0,0,1-.393.033h-.376c-2.229,0-3.685-.5-4.366-1.485a6.9,6.9,0,0,1-1.023-3.939,11.071,11.071,0,0,1,.822-4.544c.55-1.206,2.119-1.807,4.739-1.807a9.387,9.387,0,0,1,2.541.311,3.435,3.435,0,0,1,1.922,1.317l-.088-1.482Zm-9.756,5.693v.411a7.217,7.217,0,0,0,.506,3.016c.329.714,1.425,1.078,3.272,1.078a5.653,5.653,0,0,0,2.629-.532,2.308,2.308,0,0,0,1.155-1.979c.051-.332.071-.661.1-.994s.031-.672.031-1a8.777,8.777,0,0,0-.5-3.232q-.514-1.2-3.409-1.2a4.586,4.586,0,0,0-3.042.718,3.953,3.953,0,0,0-.736,2.786Z" transform="translate(31.169 85.485)" fill="#fff"/>
    <path id="Path_463" data-name="Path 463" d="M296.83,700.774v1.348h-5.324V709.2a2.028,2.028,0,0,0,.369,1.388,2.145,2.145,0,0,0,1.593.42c.919,0,1.491-.2,1.666-.579a3.259,3.259,0,0,0,.283-1.467v-.769h1.949a6.3,6.3,0,0,1-.647,3.009c-.424.8-1.535,1.206-3.281,1.206a5.39,5.39,0,0,1-3.168-.685,3.123,3.123,0,0,1-.851-2.523v-7.074h-1.8v-1.348h1.8v-2.786h2.088v2.786Z" transform="translate(39.248 84.04)" fill="#fff"/>
    <path id="Path_464" data-name="Path 464" d="M293.15,704.792a6.994,6.994,0,0,1,1.049-4.275c.7-.919,2.318-1.37,4.841-1.37,2.633,0,4.352.391,5.145,1.149s1.171,2.223,1.171,4.394a12.144,12.144,0,0,1-.718,4.591q-.726,1.736-4.986,1.741c-2.459,0-4.158-.314-5.1-.963-.941-.627-1.405-2.041-1.405-4.189Zm2.161-.031v1.489a4.922,4.922,0,0,0,.033.546,6.593,6.593,0,0,0,.234,1.363,1.929,1.929,0,0,0,.555.992,1.879,1.879,0,0,0,.8.345,6.93,6.93,0,0,0,.994.13H299.3a7.2,7.2,0,0,0,2.746-.426c.634-.278.99-.957,1.074-2.055.018-.228.026-.446.04-.661s.011-.442.011-.665a5.464,5.464,0,0,0,.031-.663V704.5a7.155,7.155,0,0,0-.466-3.029c-.314-.614-1.312-.917-2.989-.917H299.3c-1.783,0-2.883.23-3.327.694s-.663,1.511-.663,3.139Z" transform="translate(45.943 85.441)" fill="#fff"/>
    <path id="Path_465" data-name="Path 465" d="M300.188,699.369h1.92v1.474a3.766,3.766,0,0,1,2.039-1.387,10.591,10.591,0,0,1,2.662-.327,6.372,6.372,0,0,1,3.926.9c.76.588,1.131,1.67,1.131,3.232v7.618h-2.1V703.4a3.053,3.053,0,0,0-.652-2.311,4.587,4.587,0,0,0-2.753-.55,5.158,5.158,0,0,0-3.042.758,2.886,2.886,0,0,0-1.065,2.512v7.067h-2.066Z" transform="translate(54.454 85.419)" fill="#fff"/>
    <path id="Path_466" data-name="Path 466" d="M261.991,695.369h-.245a3.431,3.431,0,0,0-2.267.919,2.323,2.323,0,0,0,.2,3.694,3.462,3.462,0,0,0,2.11.674h.219a3.521,3.521,0,0,0,2.284-.912,2.367,2.367,0,0,0,.826-1.9,2.3,2.3,0,0,0-1.007-1.794,3.345,3.345,0,0,0-2.123-.683Z" transform="translate(4.236 80.873)" fill="#fff"/>
    <path id="Path_467" data-name="Path 467" d="M258.313,706.878a9.068,9.068,0,0,0,1.98.227,8.877,8.877,0,0,0,5.384-1.812,8.216,8.216,0,0,1-1.381-2.143A9.449,9.449,0,0,1,258.313,706.878Z" transform="translate(3.816 90.283)" fill="#fff"/>
    <path id="Path_468" data-name="Path 468" d="M269.113,698.286a.648.648,0,0,1-.091.115,4.162,4.162,0,0,1-2.731,1.1l-.263.007a4.117,4.117,0,0,1-2.545-.835,3.074,3.074,0,0,1-1.213-1.752,8.943,8.943,0,0,0-2.227,16.724,1.485,1.485,0,0,1-.376-.895,4.219,4.219,0,0,1,.208-1.315l1.96-6.685a4.768,4.768,0,0,0,.254-1.454.687.687,0,0,0-.34-.519,1.5,1.5,0,0,0-.866-.183c-.168.009-.369.033-.6.049l.188-.563,5.554-1.043.985-.053-2.879,9.957a5.074,5.074,0,0,0-.225,1.109.372.372,0,0,0,.159.265.488.488,0,0,0,.329.113,1.8,1.8,0,0,0,.769-.236,10.9,10.9,0,0,0,2.7-2.238,7.28,7.28,0,0,1-.393-2.306,7.657,7.657,0,0,1,4.18-6.791A8.935,8.935,0,0,0,269.113,698.286Z" transform="translate(0 82.754)" fill="#fff"/>
    <g id="Group_152" data-name="Group 152" transform="translate(279.896 808.102)">
      <path id="Path_469" data-name="Path 469" d="M269.879,730.063a28.221,28.221,0,0,1-2.554-4.489,13.3,13.3,0,0,1-.97-5.141,12.94,12.94,0,0,1,.97-5,29.05,29.05,0,0,1,2.5-4.43h1.566a31.315,31.315,0,0,0-2.105,4.544,17.118,17.118,0,0,0,0,9.973,32.773,32.773,0,0,0,2.132,4.547Z" transform="translate(-266.355 -708.328)" fill="#fff"/>
      <path id="Path_470" data-name="Path 470" d="M281.387,713.811h-2.335v3.3h-5.287c-.74,0-1.111.25-1.111.767s.605.766,1.82.766c.17,0,.435-.011.782-.029s.612-.026.784-.026a4.909,4.909,0,0,1,2.925.791,3.086,3.086,0,0,1,1.279,2.673,3.446,3.446,0,0,1-1.049,2.543,3.512,3.512,0,0,1-2.563,1.041l2.437,2.021-1.3,1.471-8.015-6.648,1.368-1.451c1.3,1.131,2.094,1.789,2.357,1.96a5.374,5.374,0,0,0,2.93.886,2.177,2.177,0,0,0,1.421-.491,1.552,1.552,0,0,0,.594-1.275c0-1.2-.817-1.787-2.446-1.787-.225,0-.561.009-1.007.04s-.784.042-1.007.042q-3.3,0-3.3-2.5a2.267,2.267,0,0,1,.881-1.832,3.07,3.07,0,0,1,2.022-.729h3.491v-1.531h-7.927V712.5h12.253Z" transform="translate(-262.994 -706.509)" fill="#fff"/>
      <path id="Path_471" data-name="Path 471" d="M286.5,714.694a5.17,5.17,0,0,0-8.638,0h2.019V716h-2.245v12.33h-1.964V716h-1.25v-1.308h1.31a7.125,7.125,0,0,1,10.145-2.943,6.823,6.823,0,0,1,2.585,2.943Z" transform="translate(-256.604 -708.7)" fill="#fff"/>
      <path id="Path_472" data-name="Path 472" d="M290.227,713.811H285.6a4.671,4.671,0,0,1,1.308,3.5,5.9,5.9,0,0,1-.2,1.524h2.585v1.655h-2.817v-.97a4.882,4.882,0,0,1-3.552,2.843l4.474,3.807h-2.965l-6.875-5.912,1.288-1.4c.848.756,1.312,1.156,1.392,1.193a2.693,2.693,0,0,0,1.633.608,3.009,3.009,0,0,0,2.189-.943,2.972,2.972,0,0,0,.941-2.185,3.906,3.906,0,0,0-1.927-3.72h-6.429V712.5h13.583Z" transform="translate(-253.913 -706.509)" fill="#fff"/>
      <path id="Path_473" data-name="Path 473" d="M300.288,713.811H298.1v12.3h-1.957V717.7a3.252,3.252,0,0,0-2.291.99,3.137,3.137,0,0,0-.948,2.289,3.248,3.248,0,0,0,.283,1.323l-2.1-.985a6.265,6.265,0,0,1,.254-1.922,3.035,3.035,0,0,0-2.828-1.694,3.238,3.238,0,0,0-2.351.95,3.318,3.318,0,0,0,0,4.666,3.231,3.231,0,0,0,2.351.952,3.1,3.1,0,0,0,2.457-1.171v2.313a5.109,5.109,0,0,1-2.554.7,4.834,4.834,0,0,1-3.6-1.569,5.114,5.114,0,0,1-1.518-3.667,4.733,4.733,0,0,1,1.535-3.559,5.091,5.091,0,0,1,3.634-1.458,4.966,4.966,0,0,1,3.526,1.394v.822a4.833,4.833,0,0,1,4.151-2.216v-2.046h-13.7V712.5h17.842Z" transform="translate(-246.897 -706.509)" fill="#fff"/>
      <path id="Path_474" data-name="Path 474" d="M303.35,713.811h-4.008v3.243h-5q-.772,0-.771.638c0,.4.371.643,1.109.723H296.2c2.715,0,4.078,1.3,4.078,3.921a3.635,3.635,0,0,1-1.367,2.887,4.942,4.942,0,0,1-6.449-.106,4.119,4.119,0,0,1-1.357-3.181c0-.113,0-.32.02-.627h1.933v.515a2.731,2.731,0,0,0,.82,1.973,2.631,2.631,0,0,0,1.949.835,2.49,2.49,0,0,0,1.823-.7,2.437,2.437,0,0,0,.722-1.818,1.7,1.7,0,0,0-1.44-1.787,13.25,13.25,0,0,0-2.578-.148,2.868,2.868,0,0,1-1.838-.572,2,2,0,0,1-.848-1.7c0-1.71.932-2.561,2.8-2.561h2.967v-1.531h-7.158V712.5H303.35Zm-1.138,4.4a1.093,1.093,0,0,1-1.222,1.25q-1.137,0-1.138-1.193,0-1.279,1.138-1.279a1.212,1.212,0,0,1,.868.354A1.194,1.194,0,0,1,302.212,718.214Z" transform="translate(-237.426 -706.509)" fill="#fff"/>
      <path id="Path_475" data-name="Path 475" d="M300.122,721.588h-2.046a8.134,8.134,0,0,0-4.489-1.818l-.029-.915A8.833,8.833,0,0,1,300.122,721.588Z" transform="translate(-233.459 -698.828)" fill="#fff"/>
      <path id="Path_476" data-name="Path 476" d="M308.637,713.811h-3.411V719.6l-.168.037a2.986,2.986,0,0,0-3.027-2.138,3.273,3.273,0,0,0-2.379.943,3.395,3.395,0,0,0-.031,4.7,3.254,3.254,0,0,0,5.6-2.344H307.3a5.092,5.092,0,0,1-1.546,3.776,5.212,5.212,0,0,1-3.822,1.533,5.068,5.068,0,0,1-3.749-1.547,5.4,5.4,0,0,1,0-7.542,5.01,5.01,0,0,1,3.72-1.564,5.232,5.232,0,0,1,1.337.172v-1.818h-7.416V712.5h12.816Z" transform="translate(-230.723 -706.509)" fill="#fff"/>
      <path id="Path_477" data-name="Path 477" d="M312.919,713.811H301.327V712.5h15.852v1.308h-2.3v12.361h-1.957v-8.243h-6.166a2.551,2.551,0,0,0-1.944.8,2.807,2.807,0,0,0-.758,1.99,2.724,2.724,0,0,0,.758,1.973,2.565,2.565,0,0,0,1.944.782,2.608,2.608,0,0,0,1.973-.808,2.78,2.78,0,0,0,.787-2,2.551,2.551,0,0,0-1.365-2.331H310.5a4.585,4.585,0,0,1,.711,2.415,4.23,4.23,0,0,1-1.348,3.131,4.435,4.435,0,0,1-3.172,1.3,4.175,4.175,0,0,1-3.082-1.321,4.421,4.421,0,0,1,3.142-7.547h6.166Z" transform="translate(-224.065 -706.509)" fill="#fff"/>
      <path id="Path_478" data-name="Path 478" d="M332.771,713.811H322.8v2.245a4.854,4.854,0,0,1,3.157-1.136,4.976,4.976,0,0,1,3.612,1.478,4.84,4.84,0,0,1,1.5,3.577,5.407,5.407,0,0,1-1.458,3.723,4.616,4.616,0,0,1-3.566,1.622,5,5,0,0,1-2.278-.559v-2.28a3.017,3.017,0,0,0,2.132.879,3.109,3.109,0,0,0,2.287-1,3.2,3.2,0,0,0,.981-2.293,2.977,2.977,0,0,0-.97-2.209,3.118,3.118,0,0,0-2.24-.95,3.252,3.252,0,0,0-2.105.8,2.42,2.42,0,0,0-1.052,1.937v6.533h-1.96v-1.995a4.834,4.834,0,0,1-3.153,1.142,4.962,4.962,0,0,1-3.61-1.489,4.854,4.854,0,0,1-1.5-3.594,5.341,5.341,0,0,1,1.463-3.714,4.648,4.648,0,0,1,3.566-1.6,5.1,5.1,0,0,1,2.5.681v2.472a2.954,2.954,0,0,0-2.395-1.167,3.267,3.267,0,0,0-2.317,5.532,3.433,3.433,0,0,0,4.553.057,2.871,2.871,0,0,0,.9-2.174v-6.511h-9.4V712.5h21.335Z" transform="translate(-211.84 -706.509)" fill="#fff"/>
      <path id="Path_479" data-name="Path 479" d="M338.644,713.811h-2.192v12.3h-1.962V717.7a3.237,3.237,0,0,0-2.284.99,3.137,3.137,0,0,0-.948,2.289,3.243,3.243,0,0,0,.278,1.323l-2.1-.985a6.263,6.263,0,0,1,.254-1.922,3.041,3.041,0,0,0-2.832-1.694,3.2,3.2,0,0,0-2.342.95,3.307,3.307,0,0,0,0,4.666,3.2,3.2,0,0,0,2.342.952,3.1,3.1,0,0,0,2.461-1.171v2.313a5.117,5.117,0,0,1-2.556.7,4.82,4.82,0,0,1-3.592-1.569,5.11,5.11,0,0,1-1.522-3.667,4.739,4.739,0,0,1,1.533-3.559,5.1,5.1,0,0,1,3.634-1.458,4.946,4.946,0,0,1,3.524,1.394v.822a4.837,4.837,0,0,1,4.149-2.216v-2.046H320.8V712.5h17.846Z" transform="translate(-200.519 -706.509)" fill="#fff"/>
      <path id="Path_480" data-name="Path 480" d="M332.015,714.926a2.22,2.22,0,0,0-1.387,1,6.437,6.437,0,0,1-2.11-1.9,11.183,11.183,0,0,0-1.615-1.911,6.341,6.341,0,0,0-3.327-1.1l1.392-1.222a5.839,5.839,0,0,1,2.952,1.164,15.831,15.831,0,0,1,1.851,1.988A8.382,8.382,0,0,0,332.015,714.926Z" transform="translate(-197.16 -709.79)" fill="#fff"/>
      <path id="Path_481" data-name="Path 481" d="M343.847,713.811H341.4v12.33h-1.96v-8.519h-2.927A5.224,5.224,0,0,1,332.277,726a5.272,5.272,0,0,1-3.011-.881v-3.694a2.8,2.8,0,0,0,1.025,1.792,2.979,2.979,0,0,0,1.962.711,3.308,3.308,0,0,0,3.212-3.212,3.222,3.222,0,0,0-.842-2.1,2.486,2.486,0,0,0-1.946-.992h-1.933V716.08h8.7v-2.269h-10.77V712.5h15.178Z" transform="translate(-191.001 -706.509)" fill="#fff"/>
      <path id="Path_482" data-name="Path 482" d="M335.716,730.063a33.1,33.1,0,0,0,2.134-4.547,17.519,17.519,0,0,0,.031-9.973A36.658,36.658,0,0,0,335.749,711h1.56a29.552,29.552,0,0,1,2.5,4.43,12.979,12.979,0,0,1,.965,5,13.345,13.345,0,0,1-.965,5.141,27.679,27.679,0,0,1-2.561,4.489Z" transform="translate(-182.48 -708.328)" fill="#fff"/>
    </g>
    <g id="Group_156" data-name="Group 156" transform="translate(349.254 677.848)">
      <g id="Group_153" data-name="Group 153" transform="translate(4.805 4.77)">
        <path id="Path_483" data-name="Path 483" d="M304.459,661.759a4.227,4.227,0,1,1,4.233-4.222A4.227,4.227,0,0,1,304.459,661.759Zm0-8.223a4,4,0,1,0,4,4A4,4,0,0,0,304.459,653.536Z" transform="translate(-299.546 -652.612)" fill="#fff"/>
        <path id="Path_484" data-name="Path 484" d="M304.837,662.829a4.919,4.919,0,1,1,4.924-4.913A4.92,4.92,0,0,1,304.837,662.829Zm0-9.608a4.689,4.689,0,1,0,4.695,4.695A4.694,4.694,0,0,0,304.837,653.221Zm0,8.225a3.536,3.536,0,1,1,3.541-3.53A3.535,3.535,0,0,1,304.837,661.446Zm0-6.84a3.3,3.3,0,1,0,3.309,3.309A3.308,3.308,0,0,0,304.837,654.606Z" transform="translate(-299.924 -652.991)" fill="#fff"/>
      </g>
      <g id="Group_155" data-name="Group 155">
        <g id="Group_154" data-name="Group 154">
          <path id="Path_485" data-name="Path 485" d="M311.641,670.236H303.1V668.7h3.069V666.69H301.3v-4.73h-2v3.071h-1.547v-8.62h1.538v3.082h2.028l-.011-5.121,4.863-.007v-2.008l-2.8,0v-1.529h8.2v1.529h-2.936v2.008h5v5.123h2.008V656.41h1.54v8.49h-1.54V661.96h-2.006v4.726h-5V668.7h3.007Zm-8.313-.23h8.084V668.93H308.4v-2.474h5V661.73h2.468v2.938h1.076V656.64h-1.076v3.082H313.4V654.6h-5v-2.47h2.936v-1.069H303.6v1.069l2.8,0v2.47l-4.86,0,.009,5.121h-2.488V656.64h-1.076V664.8h1.085V661.73h2.463v4.73H306.4v2.468h-3.069Zm4.14-4.414a5.068,5.068,0,1,1,5.068-5.066A5.07,5.07,0,0,1,307.468,665.592Zm0-9.9a4.837,4.837,0,1,0,4.836,4.838A4.84,4.84,0,0,0,307.468,655.688Z" transform="translate(-297.749 -650.832)" fill="#fff"/>
          <path id="Path_486" data-name="Path 486" d="M307.564,669.166h-1.085v-3.524l.124.011a4.843,4.843,0,0,0,.837.009l.124-.009Zm-.855-.23h.625V665.9a5.874,5.874,0,0,1-.625-.007Zm-.678-3.316h-4.419v-4.452l.225.689a5.549,5.549,0,0,0,3.515,3.537Zm-4.189-.232h2.868a5.793,5.793,0,0,1-2.868-2.879Zm10.722.228h-4.4l.672-.223a5.564,5.564,0,0,0,3.5-3.51l.225-.678Zm-3.084-.23h2.852v-2.859A5.812,5.812,0,0,1,309.479,665.386ZM307.089,656a4.145,4.145,0,1,0,4.145,4.147A4.149,4.149,0,0,0,307.089,656Zm9.02,4.889h-3.541l.016-.128a5.674,5.674,0,0,0,.033-.614c0-.075,0-.15,0-.223l0-.119h3.5Zm-3.285-.23h3.053v-.625h-3.031l0,.113C312.849,660.318,312.84,660.49,312.824,660.66Zm-11.21.23h-3.552v-1.085h3.513l0,.119c0,.073,0,.148,0,.223a5.152,5.152,0,0,0,.035.614Zm-3.321-.23h3.064c-.015-.17-.022-.342-.022-.513v-.113h-3.042Zm14.267-1.578-.225-.678a5.573,5.573,0,0,0-3.477-3.5l-.663-.225h4.365Zm-3.066-4.169a5.821,5.821,0,0,1,2.837,2.848v-2.848Zm-7.867,4.147-.009-4.379,4.383,0-.669.225a5.571,5.571,0,0,0-3.484,3.493Zm.221-4.147.007,2.843a5.8,5.8,0,0,1,2.837-2.846Zm4.631-.265v-3.5h1.085v3.493l-.124-.009a5.34,5.34,0,0,0-.837.009Zm.23-3.274V654.4a5.39,5.39,0,0,1,.625-.009v-3.016Z" transform="translate(-297.37 -650.453)" fill="#fff"/>
        </g>
      </g>
    </g>
    <g id="Group_158" data-name="Group 158" transform="translate(349.369 677.963)">
      <path id="Path_487" data-name="Path 487" d="M304.395,653.356a4.112,4.112,0,1,0,4.118,4.118A4.114,4.114,0,0,0,304.395,653.356Z" transform="translate(-294.791 -647.895)" fill="#002581"/>
      <g id="Group_157" data-name="Group 157">
        <path id="Path_488" data-name="Path 488" d="M315.694,656.462v3.082h-2.24v-5.123h-5v-2.238h2.936v-1.3h-7.973v1.3l2.8,0v2.238l-4.86.007.009,5.121h-2.258v-3.082H297.8v8.389h1.317v-3.069h2.234v4.73h4.867v2.238H303.15v1.308h8.313V668.75h-3.007v-2.242h5v-4.726h2.238v2.941H317v-8.26Zm-8.289,8.952a4.953,4.953,0,1,1,4.951-4.951A4.952,4.952,0,0,1,307.4,665.414Z" transform="translate(-297.801 -650.884)" fill="#002581"/>
      </g>
    </g>
  </g>
</svg>
