<?xml version="1.0" encoding="UTF-8"?><svg xmlns="http://www.w3.org/2000/svg" viewBox="0 0 503.28 209.63"><defs><style>.d,.e{fill:#fff;}.e,.f{fill-rule:evenodd;}.g,.f{fill:#74c044;}.f{opacity:.96;}.h{fill:#2e3192;}.i{fill:#ed1c24;}</style></defs><g id="a"/><g id="b"><g id="c"><g><rect class="d" x="272.56" y=".25" width="1.61" height="209.13"/><g><path class="f" d="M402.23,153.25h-33.09c-8.84,0-16.01-7.25-16.01-16.2V72.58c0-8.95,7.17-16.2,16.01-16.2h118.13c8.84,0,16.01,7.25,16.01,16.2v64.47c0,8.94-7.17,16.2-16.01,16.2h-85.04Z"/><path class="d" d="M357.63,94.62h14.27v5.71c4.63-4.72,9.35-6.6,15.55-6.6,9.84,0,15.45,6.1,15.45,17.62v28.84h-14.37v-26.87c0-6.3-1.87-9.35-6.4-9.35s-7.77,2.95-10.23,7.18v29.04h-14.27v-45.57Z"/><g><path class="g" d="M339.89,75.9c4.8,0,8.51,3.71,8.51,8.51s-3.71,8.51-8.51,8.51-8.51-3.82-8.51-8.51,3.71-8.51,8.51-8.51"/><rect class="g" x="331.37" y="94.46" width="16.73" height="46.1"/></g><path class="e" d="M448.44,86.74c1.02,0,2.02,.26,2.99,.78,.97,.53,1.73,1.27,2.27,2.25,.54,.98,.81,1.99,.81,3.05s-.27,2.05-.8,3.02c-.53,.97-1.28,1.72-2.25,2.25-.96,.53-1.97,.8-3.02,.8s-2.06-.27-3.02-.8c-.97-.53-1.72-1.28-2.25-2.25-.54-.97-.81-1.98-.81-3.02s.27-2.07,.82-3.05c.54-.97,1.3-1.72,2.28-2.25,.97-.52,1.97-.78,2.99-.78m4.39,3.54c-.45-.81-1.09-1.44-1.9-1.88-.81-.44-1.64-.66-2.49-.66s-1.68,.22-2.49,.66c-.81,.44-1.44,1.06-1.9,1.88s-.69,1.66-.69,2.54,.23,1.72,.67,2.52c.45,.8,1.07,1.43,1.88,1.88,.81,.45,1.65,.67,2.52,.67s1.72-.22,2.52-.67c.81-.45,1.43-1.08,1.88-1.88,.45-.8,.67-1.64,.67-2.52s-.23-1.73-.68-2.54m-2.42,4.11c.22,.95,.38,1.61,.52,1.87h-.91c-.11-.19-.26-.78-.45-1.62-.2-.94-.57-1.29-1.37-1.32h-.83v2.95h-.88v-6.7c.44-.09,1.09-.15,1.68-.15,.94,0,1.55,.18,1.98,.57,.33,.29,.53,.76,.53,1.29,0,.89-.57,1.48-1.28,1.73v.03c.51,.18,.83,.67,1,1.37m-.6-3.04c0-.88-.63-1.26-1.56-1.26-.43,0-.72,.04-.87,.08v2.47h.9c.94,0,1.53-.51,1.53-1.29"/><path class="d" d="M449.27,147.43c0,2.16-.41,4.05-1.22,5.81h-16.62c3.04-.88,4.66-2.5,4.66-4.8,0-3.24-3.78-5.34-10.54-5.34-7.23,0-10.94,1.96-10.94,5.2,0,2.43,1.49,4.05,4.39,4.93h-16.75c-.54-1.28-.81-2.63-.81-4.12,0-5.34,4.12-9.26,12.09-11.35-3.51-1.08-5.34-2.9-5.34-5.61,0-3.51,2.57-5.81,7.7-6.96-8.04-2.36-11.48-6.22-12.09-13.71-.13-1.15-.13-3.99,.88-6.69,4.05-11.15,24.79-16.96,24.79-16.96l-1.49-2.63,10,3.04-1.62,9.05-2.09-2.3c-9.86,3.31-14.86,8.31-16.42,12.23-1.42,3.78-.54,11.55,6.82,11.69,7.36,.13,10.27-5.81,8.11-10.74-2.23-5-8.92-4.66-8.92-4.66l9.46-6.49c2.26,.69,4.17,1.6,5.73,2.53,4.38,2.63,7.56,7.13,7.58,12.24v.09c0,8.31-4.93,13.11-14.59,14.8-6.28,1.08-10.27,.07-10.27,3.65,0,3.04,3.99,2.63,12.57,3.72,9.8,1.28,14.93,6.01,14.93,13.38Z"/></g><g><path class="d" d="M163.98,72.09l-.07-71.03H51.17V71.5h.03v.44c.19,35.03,15.73,57.91,46.13,68.07l2.77,.93s1.47,.44,2.23,.64c2.28,.68,3.9,1.08,5.45,1.08s3.09-.43,5.13-1.08c1.39-.43,4.95-1.7,4.95-1.7,32.77-11.62,47.87-33.82,46.11-67.79Z"/><polygon class="i" points="99 52.17 99.04 1.83 116.07 1.83 116.07 52.24 162.92 52.24 162.92 70.11 116.07 70.11 116.07 139.36 108.02 142.38 99.04 139.35 99.04 70.11 52.15 70.03 52.15 52.24 99 52.17"/><polygon class="d" points="100.68 59.62 100.67 54.32 105.71 54.31 105.71 53.19 102.81 53.19 102.81 50.65 112.27 50.65 112.27 53.19 109.22 53.19 109.22 54.31 114.4 54.31 114.4 59.62 115.53 59.62 115.53 56.43 118.07 56.43 118.07 66.18 115.53 66.18 115.53 63.13 114.4 63.13 114.4 68.03 109.22 68.03 109.22 69.16 112.34 69.16 112.34 71.71 102.53 71.71 102.53 69.16 105.71 69.16 105.71 68.03 100.67 68.03 100.67 63.13 99.55 63.13 99.55 66.31 96.99 66.31 96.99 56.43 99.54 56.43 99.54 59.62 100.68 59.62"/><g><path class="h" d="M75.08,86.17c-4.08,0-7.4,3.32-7.4,7.39s3.32,7.41,7.4,7.41,7.39-3.33,7.39-7.41-3.32-7.39-7.39-7.39Zm0,13.49c-3.36,0-6.1-2.74-6.1-6.1s2.74-6.08,6.1-6.08,6.09,2.73,6.09,6.08-2.74,6.1-6.09,6.1Z"/><path class="h" d="M89.7,96.93v-6.72h-2.9c-.25-.89-.61-1.74-1.06-2.55l2.06-2.06-4.75-4.75-2.05,2.06c-.82-.44-1.67-.8-2.55-1.05v-2.91h-6.71v2.91c-.88,.25-1.74,.61-2.56,1.05l-2.05-2.06-4.76,4.75,2.06,2.06c-.44,.8-.8,1.66-1.06,2.55h-2.91v6.72h2.91c.26,.89,.61,1.74,1.06,2.54l-2.06,2.06,4.76,4.75,2.05-2.06c.8,.44,1.66,.8,2.56,1.06v2.91h6.71v-2.91c.9-.26,1.75-.62,2.55-1.06l2.05,2.06,4.76-4.75-2.07-2.06c.45-.8,.81-1.65,1.06-2.54h2.9Zm-4.04-.8c-.27,1.11-.7,2.15-1.3,3.12l-.26,.44,1.85,1.85-2.91,2.9-1.85-1.85-.44,.27c-.96,.59-2.01,1.04-3.12,1.3l-.5,.12v2.62h-4.11v-2.62l-.5-.12c-1.11-.26-2.16-.71-3.13-1.3l-.43-.27-1.86,1.85-2.91-2.9,1.84-1.85-.27-.44c-.59-.97-1.02-2.01-1.29-3.12l-.12-.5h-2.61v-4.12h2.61l.12-.5c.27-1.1,.7-2.14,1.29-3.11l.27-.44-1.84-1.85,2.91-2.91,1.86,1.85,.43-.27c.98-.59,2.03-1.02,3.13-1.29l.5-.12v-2.62h4.11v2.62l.5,.12c1.09,.25,2.14,.69,3.12,1.29l.44,.27,1.85-1.85,2.91,2.91-1.85,1.85,.26,.44c.6,.98,1.03,2.02,1.3,3.11l.12,.5h2.62v4.12h-2.62l-.12,.5Z"/></g><path class="h" d="M164.82,72.09l-.07-72.09H50.32V71.49h.03v.45c.19,35.56,15.97,58.77,46.82,69.09l2.81,.94s1.49,.44,2.26,.65c2.31,.69,3.96,1.09,5.53,1.09s3.14-.43,5.21-1.09c1.41-.44,5.03-1.73,5.03-1.73,33.26-11.8,48.58-34.33,46.8-68.81ZM57.75,22.49c.13-.2,.87-.21,1.23-.15,.67,.13,1.19,.77,1.57,1.1,.4-1.25,2.25-1.1,2.36,.37-.21,.26-.11,.37-.28,.61-.22,.3-.77,.37-.8,.67-.05,.34,.54,.69,.75,.9,.33,.32,.55,.57,.81,.86,.32,.1,.58,.27,.86,.42,1.19,.09,2.12-.45,2.6-1.24,.27-.46,.25-.83,.33-1.52,.04-.33,.14-.55-.04-.85-.93,.04-1.12-.67-1.42-1.27,.15-.86,.67-1.32,1.46-1.53,.31,.18,.73,.24,1.03,.43,.51,.66,.48,1.7-.18,2.18,.18,.75,1.07,1.21,1.99,1.52,.22,.07,.27,.06,.61,.14,.12,.03,.2,.13,.29,.14,1.39,.2,2.14-.4,2.88-.95,.27-.63,.76-1.07,.85-1.9-.35-.07-.55,.21-.85,.24-1.23,.13-2.28-1.22-1.89-2.51,.25-.49,.61-.85,1.09-1.11,.4-.02,.71,0,.99-.04,.15-.21-.04-.42-.09-.57-.25-2.21,1.04-3.25,1.64-4.75h.1c.85,.59,1.04,1.87,1.65,2.71,.03,.54,.38,.9,.33,1.42-.04,.38-.3,.73-.24,1.19,1.21-.06,1.76,.54,2.18,1.28,.24,1.79-1.32,2.79-2.69,2.09-.14,1.19,.76,1.76,1.32,2.41,.7,.43,1.78,.63,2.88,.33,.83-.22,2.22-1.05,2.26-1.51,.03-.29-.45-.62-.51-.95-.17-.89,.31-1.13,.71-1.62,.56-.12,.71-.1,1.27,0,1.17,.42,1.01,2.81-.61,2.61-.28,1.84,.64,3.39,2.08,3.62,.63,.1,1.09-.12,1.51-.38,.82-.52,1.27-1.15,1.84-1.85-.06-.23-.34-.23-.56-.29-.64-.34-.7-1.72,0-2.04,.19-.06,.44-.06,.56-.2,.54,.11,.97,.32,1.13,.81,.65-.58,1.67-1.3,2.98-.9-.45,.64-1.17,1.04-1.65,1.66-.46,.59-.83,1.3-1.28,1.94-.22,.32-.46,.62-.65,.95-.99,1.59-1.99,3.54-2.6,5.51h-23.61c-.41-.99-.72-1.87-1.18-2.9-.1-.22-.3-.39-.43-.61-.14-.25-.19-.56-.33-.81-.47-.82-1.01-1.65-1.51-2.42-.5-.78-.94-1.32-1.51-1.99-.22-.26-.43-.59-.62-.77-.18-.17-.64-.18-.57-.52Zm29.94,12.15c-.31,.87-1.38,.8-2.45,.8h-19.51c-.59,0-1.07,.05-1.47-.14-1.07-.51-.75-1.93,.34-2.23,6.26-.08,13.09-.04,19.55-.04,1.72,0,3.85-.4,3.54,1.61Zm9.52,104.32c-29.13-10.16-44.27-32.72-44.99-67.1h44.99v67.1Zm55.5-36.87l-12.1-.91c-.43,.27-.85,.45-1.25,.59-.4,.13-.79,.19-1.18,.19-.4,0-.84-.06-1.27-.19-.45-.14-.9-.32-1.38-.59l-12.18,.91v-18.59l1.58-.08-.53,1.03v16.47l11.53-.71c.54,.46,1.25,.7,2.09,.7s1.57-.24,2.12-.7l11.48,.71v-16.47l-.7-1.16,1.79,.09v18.71Zm-22.76-5.1c.92-.11,1.77-.17,2.56-.17,1.71,0,2.96,.26,3.77,.79,.78,.51,1.25,1.38,1.39,2.59-.71-.17-1.21-.45-1.53-.84l-10.47,.84,1.37-2.71c1.03-.23,2.01-.39,2.91-.5Zm-2.71-.27v-15.44c.95-.24,1.89-.42,2.78-.55,.91-.11,1.79-.17,2.66-.17,1.68,0,2.92,.33,3.76,.99,.84,.67,1.25,1.67,1.25,3.01v13.35c-1.08-1.2-2.84-1.79-5.31-1.79-.59,0-1.33,.05-2.19,.14-.85,.1-1.85,.24-2.94,.45Zm-.72,.09l-1.41,2.74v-14.95l1.41-2.57v14.79Zm23.98,3.4l-10.51-.85c-.37,.45-.91,.73-1.6,.85,0-2.26,1.69-3.38,5.05-3.38,.78,0,1.64,.05,2.6,.17,.95,.11,1.98,.29,3.08,.53l1.38,2.68Zm-.99-3.4v-14.72l1.41,2.67v14.73l-1.41-2.68Zm-.71-.06c-.88-.21-1.77-.37-2.64-.47-.87-.1-1.75-.15-2.62-.15-1.3,0-2.33,.14-3.08,.4-.75,.25-1.45,.74-2.11,1.43v-13.36c0-1.39,.35-2.37,1.08-2.94,.92-.73,2.25-1.09,4.03-1.09,.73,0,1.54,.05,2.42,.17,.9,.12,1.86,.29,2.92,.52v15.49Zm14.11-26.63h-46.85v69.25c-1.05,.36-7.11,1.76-8.29,1.76-1.11,0-7.76-1.48-8.74-1.77V70.11l-46.89-.08v-17.79h46.85v-.07h.04V1.83h17.03V52.24h46.85v17.87Zm0-19.7h-45.02V1.78h45.02V50.41Z"/><g><path class="i" d="M143.2,19.28c.67-.21,.27-.97,2.43-1.26,1.23-.16,1.08-1.35,3.84-.79,1.24,.25,1.63,1.02,1.95,2.07-1.26-.59-2.84-.26-2.18-.32,1.15-.15,1.65,1.51,1.75,1.91-1.3-1.29-2.65-.62-2.68-.36,1.26-.2,2.02,.9,2.07,1.15-1.61-.55-4.37,1.9-5.45-.35-.38-.77-2.5-1.35-1.75-2.06Z"/><path class="i" d="M131.4,15.9h1.53l.89-2.01,1.22,2.28h1.46l2.05-1.26-2.05,2.84c-1.53-.3-3.38-.3-5.55,0l-1.49-2.81,1.95,.96Z"/><path class="i" d="M157.75,42.32c-.86,.54-4.56,.27-4.56,.27,0,0-.66-2.44,1-2.44s4.42,1.66,3.56,2.17Z"/><path class="i" d="M143.96,41.03c-.85,.53-4.56,.27-4.56,.27,0,0-.65-2.44,1-2.44s4.43,1.65,3.56,2.18Z"/><path class="i" d="M129.82,41.71c-.86,.53-4.55,.26-4.55,.26,0,0-.66-2.45,.98-2.45s4.42,1.65,3.57,2.19Z"/><path class="i" d="M122.3,24.8s2.44-.66,2.44,.99-1.65,4.43-2.18,3.57c-.54-.86-.27-4.56-.27-4.56Z"/><path class="i" d="M156.15,34.84c.21-1.05-1.24-2.71-1.64-3.04-.23-.19-.13-.54-.01-.83-.81-.74-1.68-1.01-1.68-1.01l.05-.26s.9,.29,1.74,1.01c.05-.1,.1-.17,.1-.17,3.37-.92,4.96-4.69,3.1-6.67-1.84-1.97-4.29-2.05-7.27-.91-2.97,1.11-5.08,1.18-6.01,.85-2-.71-1.72-4.1-1.72-4.1-2.77,5.45,2.11,5.8,4.16,5.49,2.15-.34,3.49-1.14,6.54-.73,2.25,.29,2.53,2,1.65,3.03-.99,1.15-2.7,.46-2.7,.46-1.32-1.05-7.86-.38-9.44-.25-1.58,.13-2.85-1.26-2.85-1.26l-.95-2.1c.22,1.56,.09,3.16-.7,4.07,.46-2.2-.71-2.81,.1-5.38l-1.48-3.26c-1.31-2.25-6.38-.76-6.38-.76,0,0-2.77,1.98-4.13,2.66-.39,.2,.67,4.75,1.49,4.37,.44-.2,2.8-.72,2.8-.72v2.18l-.99,2.51-5.4-.93-1,.93,.4,.59,.3,.35c2.24,.38,7.42,4.46,7.42,4.46-.86,.54-3.59,3.76-3.59,3.76l2.34,1.45,4.48-4.87c5.41,1.98,9.18-2.38,9.77-1.86,.6,.53-.19,1.19,.07,2.45,.16,.73,0,2.18,0,2.18l-1.35,.55,1.29,1.11s1.06,0,2.19-.66c.78-.45,.85-2.77,.59-3.17-.23-.34,.83-1.17,1.11-1.4-1.46-2.22-4.1-1.92-4.13-1.91l-.04-.26s3.16-.41,4.64,2.4l-.04,.02c4.38,3.86,7.78,1.81,7.78,1.81,0,0,.38,1.46,.19,3.38l1.4,1.63,1.12-6.92s-3.5,.79-3.31-.26Zm-25.44-14.14c-.23,.05-.43,.01-.46-.1-.02-.12,.13-.26,.34-.32,.23-.06,.43,0,.46,.1,.03,.13-.12,.26-.34,.32Zm1.41,13.21c-.7-1.51-.1-2.43-.96-5.58,1.52,1.77,1.41,3.43,.96,5.58Zm.54-11.9c0-1.54-.34-2.12-.34-2.12l.41,.02c.11,.62-.07,2.1-.07,2.1Zm2.28,8.48c-.89-3.44,.38-4.43,1.21-8.54,.99,3.73-1.23,5.36-1.21,8.54Zm2.05,5.2v-1.5c1.26,.78,3.3,.72,6.13-.19-3.25,2.44-6.13,1.69-6.13,1.69Z"/></g><path class="d" d="M138.69,169.67h2.12c0,1.83-.48,3.04-1.38,3.6-.92,.57-2.46,.84-4.63,.84-3.01,0-4.82-.51-5.44-1.54-.58-1.03-.89-2.65-.89-4.89,0-2.02,.41-3.47,1.25-4.37,.83-.9,2.52-1.35,5.05-1.35,1.58,0,2.93,.22,4.08,.64,1.15,.42,1.72,1.43,1.72,3.02v.16s-.03,.08-.03,.11v.11h-2.09c0-1.07-.26-1.77-.78-2.1-.52-.33-1.41-.49-2.64-.49-1.91,0-3.1,.25-3.59,.74-.5,.51-.74,1.61-.74,3.3v1.19c0,1.34,.18,2.34,.56,3.01,.36,.67,1.47,1,3.32,1,1.6,0,2.68-.16,3.25-.47,.56-.32,.86-1.15,.86-2.51Z"/><path class="d" d="M143.91,167.72c0-2.02,.37-3.5,1.09-4.44,.72-.93,2.4-1.41,5-1.41,2.75,0,4.52,.4,5.33,1.2,.82,.78,1.22,2.3,1.22,4.55,0,1.96-.24,3.53-.75,4.75-.5,1.21-2.22,1.81-5.15,1.81-2.56,0-4.31-.33-5.28-.99-.97-.66-1.46-2.11-1.46-4.34v-1.13Zm2.24-.04v1.55c0,.19,.02,.39,.02,.58,.05,.48,.12,.96,.25,1.4,.12,.44,.31,.79,.59,1.02,.21,.18,.48,.29,.82,.36,.32,.07,.66,.11,1.03,.13h1.43c1.23,0,2.17-.14,2.84-.44,.66-.28,1.03-.99,1.11-2.12,.02-.25,.03-.48,.05-.7,.01-.22,.01-.45,.01-.69,.03-.22,.04-.44,.04-.68v-.68c0-1.47-.17-2.51-.48-3.15-.33-.63-1.37-.94-3.1-.94h-.46c-1.85,0-3,.23-3.45,.72-.46,.47-.69,1.57-.69,3.25v.39Z"/><path class="d" d="M162.19,156.98v17.03h-2.17v-17.03h2.17Z"/><path class="d" d="M168.1,156.98v17.03h-2.17v-17.03h2.17Z"/><path class="d" d="M181.94,170.38h2.2c0,1.75-.55,2.82-1.68,3.19-1.13,.37-2.58,.56-4.41,.56-2.67,0-4.41-.42-5.21-1.27-.78-.85-1.2-2.37-1.2-4.52s.32-3.67,.93-4.77c.62-1.11,2.33-1.66,5.17-1.66,2.69,0,4.4,.38,5.19,1.13,.78,.75,1.18,2.22,1.21,4.44v.89h-10.3c0,1.33,.19,2.39,.53,3.18,.33,.81,1.45,1.22,3.37,1.22h1.24c.22,0,.49-.02,.75-.06,.31-.02,.62-.07,.9-.13,.28-.06,.52-.16,.73-.28,.2-.12,.33-.27,.41-.47,.07-.2,.11-.4,.14-.59,.02-.08,.03-.15,.03-.24v-.61Zm.06-3.4c0-1.47-.2-2.46-.62-2.96-.43-.49-1.57-.74-3.45-.74-1.66,0-2.74,.25-3.27,.77-.52,.51-.77,1.5-.77,2.93h8.11Z"/><path class="d" d="M199.63,162.1v12.66c0,1.83-.51,3.05-1.55,3.63-1.01,.59-2.59,.89-4.7,.89-1.82,0-3.22-.23-4.17-.67-.96-.45-1.43-1.52-1.43-3.24l1.99,.03c.07,1.07,.34,1.73,.83,2.02,.49,.27,1.34,.41,2.55,.41,1.4,0,2.49-.16,3.28-.46,.77-.31,1.14-1.13,1.14-2.48v-2.34c-.38,.61-.93,1.04-1.66,1.24-.73,.21-1.48,.31-2.25,.33-.13,.02-.25,.03-.39,.03h-.41c-2.3,0-3.8-.51-4.51-1.53-.7-1.01-1.06-2.38-1.06-4.08,0-1.89,.28-3.45,.83-4.71,.57-1.24,2.21-1.87,4.93-1.87,.95,0,1.84,.11,2.63,.32,.8,.21,1.46,.67,1.99,1.37l-.1-1.54h2.06Zm-10.1,5.91v.43c0,1.34,.18,2.39,.52,3.12,.35,.74,1.48,1.11,3.4,1.11,1.13,0,2.04-.18,2.73-.54,.68-.37,1.09-1.05,1.19-2.06,.04-.34,.08-.68,.09-1.03,.02-.35,.03-.69,.03-1.03,0-1.4-.18-2.51-.51-3.35-.35-.84-1.53-1.25-3.53-1.25-1.58,0-2.63,.25-3.15,.76-.52,.49-.77,1.46-.77,2.87v.97Z"/><path class="d" d="M213.01,170.38h2.21c0,1.75-.57,2.82-1.68,3.19-1.12,.37-2.6,.56-4.42,.56-2.67,0-4.4-.42-5.2-1.27-.81-.85-1.2-2.37-1.2-4.52s.31-3.67,.92-4.77c.61-1.11,2.33-1.66,5.17-1.66,2.68,0,4.41,.38,5.19,1.13,.78,.75,1.2,2.22,1.21,4.44v.89h-10.29c0,1.33,.17,2.39,.5,3.18,.33,.81,1.47,1.22,3.38,1.22h1.24c.24,0,.49-.02,.76-.06,.3-.02,.59-.07,.89-.13,.29-.06,.53-.16,.73-.28,.2-.12,.34-.27,.42-.47,.07-.2,.11-.4,.14-.59,0-.08,.02-.15,.02-.24v-.61Zm.07-3.4c0-1.47-.21-2.46-.63-2.96-.42-.49-1.57-.74-3.45-.74-1.64,0-2.74,.25-3.25,.77-.53,.51-.78,1.5-.78,2.93h8.11Z"/><path class="d" d="M28.28,165.02h-2.14c0-.66-.12-1.11-.37-1.39-.24-.27-.78-.42-1.59-.45-.39-.02-.78-.03-1.18-.03h-1.65c-.16,0-.32,.01-.48,.03-.29,.01-.59,.05-.89,.11-.28,.04-.54,.14-.76,.28-.19,.12-.31,.25-.36,.42-.07,.16-.1,.34-.13,.53v.41c0,.72,.15,1.22,.42,1.49,.27,.25,.84,.42,1.72,.45,.27,0,.54,.02,.82,.02h.81c1.57,0,3,.19,4.28,.48,1.29,.3,1.93,1.29,1.93,2.93,0,1.74-.56,2.78-1.68,3.14-1.12,.36-2.57,.54-4.35,.54h-.49c-1.45-.02-2.77-.21-3.96-.54-1.21-.34-1.8-1.24-1.8-2.73v-.17c0-.06,.02-.12,.03-.16,0-.05,0-.11,.01-.18,0-.04,.01-.11,.01-.16h2.15c0,1.1,.25,1.81,.75,2.1,.5,.32,1.36,.47,2.61,.47h1.18c.25-.01,.5-.03,.77-.04,.34-.01,.68-.06,1.03-.13,.35-.06,.63-.16,.85-.3,.21-.11,.36-.28,.45-.49,.09-.2,.14-.41,.16-.63,.02-.11,.03-.21,.03-.32v-.3c0-.94-.28-1.49-.87-1.64-.58-.15-1.3-.23-2.14-.23h-.13c-.12-.02-.26-.03-.38-.03h-.41c-.1,0-.2,0-.3,0-.11-.02-.21-.03-.31-.03-1.46-.05-2.72-.22-3.77-.51-1.05-.3-1.58-1.2-1.58-2.69,0-.17,0-.31,.01-.46,.01-.16,.03-.35,.05-.51,.04-.34,.13-.67,.27-.99,.15-.3,.39-.58,.71-.77,.35-.23,.75-.4,1.23-.51,.46-.11,.96-.21,1.47-.25,.34-.02,.68-.06,1.02-.06,.34-.01,.65-.02,.93-.02h.81c.27,0,.55,.01,.83,.03,1.11,.05,2.12,.25,3.03,.62,.91,.35,1.36,1.11,1.36,2.23v.23s-.04,.06-.04,.11v.1Z"/><path class="d" d="M34.29,156.8v17.02h-2.17v-17.02h2.17Z"/><path class="d" d="M40.01,156.8v1.97h-2.17v-1.97h2.17Zm0,5.1v11.92h-2.17v-11.92h2.17Z"/><path class="d" d="M43.55,161.9h2v1.53c.56-.72,1.26-1.21,2.11-1.44,.86-.22,1.78-.34,2.75-.34,1.95,0,3.3,.3,4.08,.93,.77,.61,1.16,1.73,1.16,3.35v7.89h-2.17v-7.74c0-1.2-.24-2-.68-2.4-.44-.38-1.4-.57-2.84-.57s-2.41,.25-3.15,.79c-.74,.53-1.11,1.4-1.11,2.6v7.32h-2.15v-11.92Z"/><path class="d" d="M71.33,161.93v12.66c0,1.84-.51,3.05-1.55,3.63-1.03,.59-2.6,.88-4.69,.88-1.85,0-3.24-.22-4.18-.67-.95-.44-1.43-1.51-1.43-3.24l1.99,.03c.07,1.08,.34,1.75,.83,2.02,.49,.28,1.34,.41,2.55,.41,1.4,0,2.48-.16,3.27-.46,.78-.31,1.16-1.13,1.16-2.46v-2.35c-.38,.63-.93,1.04-1.66,1.24-.72,.22-1.47,.31-2.25,.33-.13,.02-.26,.03-.41,.03h-.39c-2.31,0-3.82-.52-4.52-1.54-.69-1.02-1.06-2.38-1.06-4.08,0-1.88,.29-3.46,.85-4.71,.57-1.25,2.2-1.87,4.91-1.87,.96,0,1.85,.1,2.63,.32,.8,.21,1.46,.66,1.99,1.36l-.09-1.54h2.06Zm-10.11,5.9v.42c0,1.35,.18,2.4,.52,3.12,.34,.74,1.48,1.12,3.39,1.12,1.12,0,2.03-.19,2.72-.55,.7-.37,1.1-1.06,1.2-2.05,.05-.34,.07-.69,.1-1.03,.01-.35,.03-.7,.03-1.03,0-1.4-.19-2.51-.52-3.35-.35-.83-1.53-1.25-3.53-1.25-1.58,0-2.63,.25-3.15,.75-.51,.5-.76,1.47-.76,2.89v.96Z"/><path class="d" d="M83.82,161.93v1.4h-5.52v7.33c0,.68,.13,1.17,.38,1.44,.24,.28,.8,.43,1.65,.43,.95,0,1.54-.21,1.73-.6,.19-.38,.29-.89,.29-1.52v-.8h2.02c0,1.25-.22,2.27-.67,3.12-.44,.82-1.59,1.25-3.4,1.25-1.59,0-2.68-.25-3.28-.71-.59-.48-.88-1.35-.88-2.61v-7.33h-1.87v-1.4h1.87v-2.89h2.16v2.89h5.52Z"/><path class="d" d="M86.95,167.54c0-2.03,.37-3.51,1.09-4.43,.73-.95,2.4-1.42,5.01-1.42s4.51,.4,5.33,1.19c.81,.8,1.21,2.3,1.21,4.55,0,1.96-.24,3.54-.74,4.76-.5,1.2-2.22,1.8-5.16,1.8-2.55,0-4.31-.32-5.28-1-.98-.65-1.46-2.11-1.46-4.34v-1.12Zm2.24-.03v1.54c0,.2,.01,.38,.03,.57,.04,.51,.11,.97,.24,1.41,.12,.46,.31,.79,.57,1.03,.22,.18,.5,.29,.82,.36,.32,.06,.67,.12,1.03,.14h1.43c1.23,0,2.18-.16,2.85-.44,.66-.29,1.02-.99,1.11-2.13,.02-.24,.03-.46,.04-.69,.01-.23,.01-.46,.01-.69,.03-.22,.03-.45,.03-.69v-.68c0-1.46-.16-2.51-.48-3.14-.33-.64-1.36-.95-3.1-.95h-.46c-1.85,0-2.99,.24-3.45,.72-.45,.49-.69,1.57-.69,3.25v.39Z"/><path class="d" d="M103.05,161.9h1.99v1.53c.56-.72,1.25-1.21,2.11-1.44,.86-.22,1.77-.34,2.76-.34,1.93,0,3.3,.3,4.07,.93,.79,.61,1.17,1.73,1.17,3.35v7.89h-2.17v-7.74c0-1.2-.22-2-.68-2.4-.45-.38-1.39-.57-2.85-.57-1.36,0-2.41,.25-3.15,.79-.73,.53-1.1,1.4-1.1,2.6v7.32h-2.14v-11.92Z"/><path class="d" d="M11.47,153.05h-.25c-.95,.05-1.73,.36-2.35,.95-.6,.56-.89,1.21-.84,1.96,.04,.76,.38,1.36,1.05,1.87,.62,.46,1.35,.7,2.19,.7h.23c.95-.05,1.73-.36,2.37-.94,.6-.56,.89-1.22,.86-1.97-.04-.75-.38-1.36-1.04-1.86-.62-.48-1.35-.71-2.2-.71h0Z"/><path class="d" d="M7.22,174.72c.66,.15,1.33,.24,2.05,.24,2.1,0,4.03-.7,5.58-1.88-.59-.65-1.07-1.41-1.43-2.22-1.67,2.24-4.43,3.76-6.2,3.86Z"/><path class="d" d="M14.45,158.02s-.05,.07-.09,.12c-.75,.71-1.71,1.09-2.83,1.15h-.27c-1,0-1.88-.29-2.64-.86-.67-.5-1.09-1.11-1.26-1.81-4.21,.87-7.37,4.6-7.37,9.07,0,3.6,2.07,6.72,5.06,8.25-.22-.26-.38-.57-.39-.93-.02-.35,.06-.8,.22-1.36l2.03-6.93c.2-.67,.28-1.16,.26-1.5-.01-.2-.13-.38-.35-.54-.22-.14-.53-.21-.9-.19-.18,0-.38,.03-.62,.05l.19-.58,5.75-1.08,1.02-.06-2.98,10.31c-.15,.58-.24,.96-.23,1.15,0,.11,.07,.2,.16,.27,.11,.09,.23,.12,.34,.12,.2,0,.6-.12,.8-.25,.95-.61,2.1-1.41,2.79-2.32-.25-.75-.41-1.54-.41-2.39,0-3.07,1.77-5.72,4.33-7.04-.68-1.05-1.58-1.96-2.63-2.67Z"/><g><path class="d" d="M29.28,208.57c-1.31-1.98-2.19-3.53-2.65-4.65-.67-1.61-1-3.38-1-5.33s.34-3.58,1-5.18c.47-1.14,1.33-2.66,2.59-4.59h1.62c-1.11,2.06-1.83,3.63-2.18,4.71-.51,1.55-.77,3.27-.77,5.15s.26,3.63,.77,5.18c.37,1.1,1.11,2.67,2.21,4.71h-1.59Z"/><path class="d" d="M44.68,193.61h-2.42v3.42h-5.48c-.77,0-1.15,.26-1.15,.79s.63,.79,1.89,.79c.18,0,.45-.01,.81-.03,.37-.02,.63-.03,.81-.03,1.26,0,2.27,.27,3.03,.82,.88,.63,1.32,1.56,1.32,2.77,0,1.04-.37,1.92-1.09,2.63-.73,.72-1.61,1.08-2.65,1.08l2.53,2.09-1.35,1.52-8.3-6.89,1.42-1.5c1.35,1.17,2.17,1.86,2.44,2.03,.94,.6,1.96,.92,3.03,.92,.57,0,1.06-.17,1.47-.51,.41-.33,.61-.77,.61-1.32,0-1.24-.85-1.85-2.53-1.85-.23,0-.58,.01-1.04,.04-.46,.03-.81,.04-1.04,.04-2.28,0-3.42-.86-3.42-2.59,0-.77,.3-1.4,.91-1.9,.61-.5,1.3-.76,2.09-.76h3.62v-1.59h-8.21v-1.36h12.69v1.36Z"/><path class="d" d="M56.59,192.26c-1.09-1.61-2.59-2.41-4.47-2.41s-3.38,.8-4.47,2.41h2.09v1.36h-2.33v12.77h-2.03v-12.77h-1.29v-1.36h1.35c.61-1.27,1.51-2.28,2.7-3.03,1.18-.75,2.49-1.12,3.9-1.12s2.74,.36,3.92,1.1c1.17,.74,2.07,1.75,2.68,3.05h-2.03Z"/><path class="d" d="M63.24,193.61h-4.8c.9,.88,1.35,2.09,1.35,3.63,0,.55-.07,1.07-.2,1.58h2.68v1.71h-2.92v-1c-.64,1.51-1.87,2.49-3.68,2.94l4.63,3.94h-3.07l-7.12-6.12,1.33-1.45c.88,.78,1.36,1.2,1.44,1.24,.56,.42,1.12,.63,1.69,.63,.86,0,1.61-.32,2.27-.98,.65-.65,.98-1.4,.98-2.26,0-1.82-.67-3.11-2-3.86h-6.66v-1.36h14.07v1.36Z"/><path class="d" d="M80.93,193.61h-2.26v12.74h-2.03v-8.71c-.92,.02-1.71,.36-2.37,1.02-.66,.67-.98,1.45-.98,2.37,0,.47,.1,.92,.29,1.37l-2.18-1.02c0-.78,.09-1.44,.26-1.99-.64-1.17-1.62-1.76-2.93-1.76-.96,0-1.77,.33-2.44,.98-.66,.65-.99,1.46-.99,2.42s.33,1.76,.99,2.41c.67,.66,1.48,.99,2.44,.99,1.01,0,1.86-.41,2.54-1.21v2.4c-.86,.49-1.74,.72-2.65,.72-1.43,0-2.68-.54-3.73-1.62-1.05-1.09-1.57-2.35-1.57-3.8s.53-2.67,1.59-3.69c1.06-1.01,2.31-1.51,3.76-1.51s2.63,.48,3.65,1.44v.85c1.04-1.51,2.47-2.28,4.3-2.3v-2.12h-14.19v-1.36h18.48v1.36Z"/><path class="d" d="M93.91,193.61h-4.15v3.36h-5.18c-.53,0-.8,.22-.8,.66,0,.42,.39,.67,1.15,.75h1.58c2.81,0,4.22,1.35,4.22,4.06,0,1.2-.47,2.19-1.42,2.99-.94,.79-2.02,1.19-3.24,1.19-1.35,0-2.5-.43-3.44-1.3-.94-.86-1.41-1.96-1.41-3.3,0-.12,0-.33,.02-.65h2v.53c0,.78,.28,1.47,.85,2.04,.57,.58,1.24,.86,2.02,.86s1.39-.24,1.89-.73c.5-.49,.75-1.12,.75-1.88,0-.98-.5-1.6-1.49-1.85-.37-.1-1.26-.15-2.67-.15-.76,0-1.4-.19-1.9-.59-.58-.43-.88-1.01-.88-1.76,0-1.77,.97-2.65,2.9-2.65h3.07v-1.59h-7.42v-1.36h13.54v1.36Zm-1.18,4.56c0,.86-.42,1.3-1.27,1.3-.79,0-1.18-.41-1.18-1.24,0-.88,.39-1.32,1.18-1.32,.35,0,.65,.13,.9,.37,.24,.25,.37,.55,.37,.9Z"/><path class="d" d="M94.68,209.63h-2.12c-1.77-1.26-3.32-1.88-4.65-1.88l-.03-.95c2.69,0,4.96,.95,6.8,2.83Z"/><path class="d" d="M106.33,193.61h-3.53v6l-.17,.04c-.55-1.48-1.59-2.22-3.14-2.22-.98,0-1.8,.33-2.46,.98-.67,.65-.99,1.46-.99,2.44s.32,1.79,.96,2.43c.64,.64,1.45,.96,2.42,.96s1.8-.31,2.43-.94c.63-.63,.95-1.44,.95-2.44h2.15c0,1.55-.53,2.86-1.6,3.91-1.07,1.06-2.39,1.59-3.96,1.59s-2.83-.53-3.88-1.6c-1.06-1.07-1.59-2.37-1.59-3.9s.53-2.84,1.59-3.92c1.06-1.08,2.34-1.62,3.85-1.62,.47,0,.93,.06,1.38,.18v-1.88h-7.68v-1.36h13.28v1.36Z"/><path class="d" d="M117.67,193.61h-12.01v-1.36h16.42v1.36h-2.38v12.81h-2.03v-8.54h-6.39c-.83,0-1.5,.27-2.02,.82-.52,.55-.78,1.24-.78,2.06s.27,1.51,.78,2.04c.52,.54,1.19,.81,2.02,.81s1.51-.28,2.04-.84c.54-.56,.81-1.25,.81-2.07,0-1.06-.47-1.87-1.41-2.41h2.44c.49,.81,.74,1.64,.74,2.5,0,1.26-.47,2.34-1.4,3.24-.94,.9-2.03,1.35-3.28,1.35s-2.3-.46-3.19-1.37c-.89-.91-1.34-1.99-1.34-3.22s.45-2.35,1.34-3.25c.9-.89,1.98-1.34,3.25-1.34h6.39v-2.59Z"/><path class="d" d="M150.89,193.61h-10.33v2.33c.96-.79,2.05-1.18,3.27-1.18,1.45,0,2.7,.51,3.74,1.53,1.03,1.02,1.55,2.26,1.55,3.71s-.5,2.74-1.51,3.86c-1.01,1.12-2.24,1.68-3.69,1.68-.81,0-1.59-.19-2.36-.58v-2.36c.64,.61,1.38,.91,2.21,.91,.9,0,1.69-.35,2.37-1.04,.68-.69,1.02-1.49,1.02-2.38s-.34-1.65-1.01-2.29c-.66-.65-1.44-.98-2.32-.98-.78,0-1.52,.28-2.18,.82-.72,.57-1.09,1.24-1.09,2.01v6.77h-2.03v-2.07c-.96,.79-2.05,1.18-3.27,1.18-1.46,0-2.7-.52-3.74-1.54-1.05-1.03-1.56-2.27-1.56-3.72s.5-2.74,1.51-3.85c1.01-1.11,2.24-1.66,3.69-1.66,.88,0,1.75,.24,2.59,.71v2.56c-.65-.8-1.48-1.21-2.48-1.21-.93,0-1.72,.33-2.37,.99-.65,.65-.98,1.44-.98,2.37s.31,1.75,.95,2.37c.63,.62,1.43,.92,2.39,.92s1.7-.29,2.32-.86c.61-.58,.93-1.33,.93-2.25v-6.74h-9.74v-1.36h22.1v1.36Z"/><path class="d" d="M168.7,193.61h-2.27v12.74h-2.03v-8.71c-.92,.02-1.71,.36-2.37,1.02-.66,.67-.98,1.45-.98,2.37,0,.47,.09,.92,.29,1.37l-2.17-1.02c0-.78,.08-1.44,.26-1.99-.65-1.17-1.62-1.76-2.93-1.76-.95,0-1.77,.33-2.43,.98-.66,.65-1,1.46-1,2.42s.33,1.76,1,2.41c.66,.66,1.47,.99,2.43,.99,1.02,0,1.87-.41,2.55-1.21v2.4c-.86,.49-1.75,.72-2.65,.72-1.43,0-2.67-.54-3.72-1.62-1.05-1.09-1.58-2.35-1.58-3.8s.53-2.67,1.59-3.69c1.06-1.01,2.32-1.51,3.77-1.51s2.63,.48,3.65,1.44v.85c1.04-1.51,2.47-2.28,4.3-2.3v-2.12h-14.19v-1.36h18.49v1.36Z"/><path class="d" d="M165.32,191.37c-.55,.11-1.03,.45-1.44,1.04-.81-.43-1.53-1.09-2.19-1.97-.74-1.02-1.3-1.68-1.67-1.98-.8-.62-1.95-1-3.45-1.14l1.44-1.27c1.22,.16,2.24,.56,3.06,1.21,.37,.29,1.02,.98,1.92,2.06,.76,.92,1.54,1.61,2.32,2.05Z"/><path class="d" d="M183.95,193.61h-2.53v12.77h-2.03v-8.82h-3.03c.73,.98,1.09,2.05,1.09,3.23,0,1.53-.53,2.82-1.59,3.87-1.06,1.05-2.35,1.57-3.89,1.57-1.18,0-2.21-.31-3.12-.91v-3.83c.12,.75,.47,1.37,1.06,1.86,.59,.49,1.26,.74,2.03,.74,.88,0,1.66-.33,2.32-1,.67-.67,1-1.44,1-2.33,0-.77-.29-1.49-.87-2.18-.58-.69-1.25-1.03-2.02-1.03h-2v-1.6h9.01v-2.35h-11.16v-1.36h15.72v1.36Z"/><path class="d" d="M184.36,208.57c1.1-2.04,1.84-3.61,2.21-4.71,.51-1.55,.77-3.28,.77-5.18s-.25-3.68-.73-5.15c-.32-.94-1.06-2.51-2.21-4.71h1.62c1.26,1.92,2.12,3.45,2.59,4.59,.66,1.61,1,3.34,1,5.18,0,1.94-.34,3.72-1,5.33-.45,1.12-1.34,2.67-2.65,4.65h-1.59Z"/></g><g><g><path class="d" d="M107.54,65.54c-2.41,0-4.37-1.96-4.37-4.37s1.96-4.38,4.37-4.38,4.38,1.97,4.38,4.38-1.97,4.37-4.38,4.37Zm0-8.52c-2.28,0-4.13,1.86-4.13,4.14s1.85,4.14,4.13,4.14,4.15-1.85,4.15-4.14-1.86-4.14-4.15-4.14Z"/><path class="d" d="M107.54,66.26c-2.81,0-5.09-2.28-5.09-5.09s2.28-5.1,5.09-5.1,5.1,2.29,5.1,5.1-2.29,5.09-5.1,5.09Zm0-9.95c-2.68,0-4.85,2.18-4.85,4.86s2.18,4.85,4.85,4.85,4.86-2.18,4.86-4.85-2.18-4.86-4.86-4.86Zm0,8.52c-2.02,0-3.66-1.64-3.66-3.66s1.64-3.67,3.66-3.67,3.67,1.64,3.67,3.67-1.64,3.66-3.67,3.66Zm0-7.09c-1.88,0-3.42,1.54-3.42,3.43s1.53,3.42,3.42,3.42,3.43-1.53,3.43-3.42-1.54-3.43-3.43-3.43Z"/></g><g><path class="d" d="M111.86,71.23h-8.85v-1.59h3.18v-2.08h-5.04v-4.9h-2.07v3.18h-1.6v-8.93h1.59v3.19h2.1v-5.31h5.03v-2.09h-2.9v-1.58h8.5v1.59h-3.04v2.08h5.18v5.31h2.08v-3.19h1.59v8.79h-1.59v-3.04h-2.08v4.89h-5.18v2.08h3.12v1.59Zm-8.61-.24h8.37v-1.11h-3.12v-2.56h5.18v-4.89h2.56v3.04h1.12v-8.32h-1.12v3.19h-2.56v-5.31h-5.18v-2.56h3.04v-1.11h-8.02v1.11h2.9v2.55h-5.04v5.31h-2.57v-3.19h-1.11v8.45h1.12v-3.18h2.55v4.9h5.04v2.56h-3.18v1.12Zm4.29-4.57c-2.89,0-5.24-2.35-5.24-5.25s2.35-5.25,5.24-5.25,5.25,2.35,5.25,5.25-2.35,5.25-5.25,5.25Zm0-10.26c-2.76,0-5,2.25-5,5.01s2.24,5.01,5,5.01,5.01-2.25,5.01-5.01-2.25-5.01-5.01-5.01Z"/><path class="d" d="M108.03,70.51h-1.12v-3.65h.13c.3,.04,.59,.04,.87,.02h.13v3.63Zm-.89-.24h.65v-3.14c-.21,0-.43,0-.65,0v3.15Zm-.7-3.43h-4.58v-4.61l.23,.71c.56,1.72,1.92,3.09,3.64,3.66l.7,.23Zm-4.34-.24h2.97c-1.31-.6-2.37-1.67-2.97-2.98v2.98Zm11.11,.24h-4.56l.7-.23c1.71-.57,3.06-1.93,3.63-3.64l.23-.7v4.57Zm-3.19-.24h2.96v-2.96c-.6,1.31-1.65,2.36-2.96,2.96Zm-2.48-9.72c-2.36,0-4.29,1.93-4.29,4.29s1.92,4.29,4.29,4.29,4.29-1.93,4.29-4.29-1.93-4.29-4.29-4.29Zm9.34,5.07h-3.67v-.13c.04-.21,.05-.42,.05-.64,0-.08,0-.15,0-.23v-.12h3.62v1.12Zm-3.4-.24h3.16v-.65h-3.14s0,.08,0,.11c0,.18,0,.36-.02,.53Zm-11.61,.24h-3.68v-1.12h3.64v.12c0,.08,0,.15,0,.23,0,.21,.01,.43,.04,.64v.13Zm-3.43-.24h3.17c-.01-.18-.02-.35-.02-.53,0-.04,0-.08,0-.11h-3.15v.65Zm14.78-1.63l-.23-.7c-.56-1.7-1.91-3.05-3.6-3.62l-.69-.23h4.52v4.56Zm-3.18-4.32c1.3,.6,2.34,1.65,2.94,2.95v-2.95h-2.94Zm-8.15,4.3v-4.54h4.53l-.69,.23c-1.69,.57-3.04,1.92-3.61,3.62l-.23,.69Zm.23-4.3v2.94c.6-1.3,1.65-2.35,2.95-2.95h-2.95Zm4.8-.27v-3.63h1.12v3.62h-.13c-.28-.03-.57-.03-.87,0h-.13Zm.24-3.38v3.13c.22-.02,.44-.02,.65,0v-3.12h-.65Z"/></g></g><g><path class="h" d="M107.54,56.9c-2.35,0-4.25,1.91-4.25,4.26s1.9,4.25,4.25,4.25,4.26-1.91,4.26-4.25-1.92-4.26-4.26-4.26Z"/><path class="h" d="M116.12,57.03v3.19h-2.32v-5.31h-5.18v-2.32h3.04v-1.35h-8.26v1.35h2.9v2.31h-5.04v5.31h-2.33v-3.19h-1.35v8.69h1.36v-3.18h2.31v4.9h5.04v2.32h-3.18v1.35h8.61v-1.35h-3.12v-2.32h5.18v-4.89h2.32v3.04h1.35v-8.56h-1.35Zm-8.59,9.27c-2.83,0-5.12-2.3-5.12-5.13s2.29-5.13,5.12-5.13,5.13,2.3,5.13,5.13-2.3,5.13-5.13,5.13Z"/></g></g></g></g></g></svg>