<svg xmlns="http://www.w3.org/2000/svg" width="422.854" height="108.644" viewBox="0 0 422.854 108.644">
  <g id="Group_132" data-name="Group 132" transform="translate(414 -28.809)">
    <g id="Group_46" data-name="Group 46" transform="translate(-414 -13)">
      <path id="Path_264" data-name="Path 264" d="M337.381,143.982h4.432v-9.968l9.925-15.045H346.7l-7.076,11.047-6.963-11.047h-5.215l9.93,15.146Zm-25.075,0h4.432V123.043h7.927v-4.074H304.378v4.074h7.928Zm-17.927,0h4.395V118.969h-4.395Zm-15.071.349c5.251,0,8.931-2.781,8.931-7.462V136.8c0-4.146-2.717-6.033-8.005-7.324-4.823-1.142-5.961-2-5.961-3.924v-.074c0-1.64,1.5-2.967,4.068-2.967a11.367,11.367,0,0,1,6.789,2.571l2.358-3.316a13.846,13.846,0,0,0-9.074-3.142c-4.965,0-8.54,2.967-8.54,7.25v.074c0,4.606,3,6.172,8.328,7.462,4.644,1.068,5.637,2.036,5.637,3.823v.074c0,1.852-1.708,3.141-4.425,3.141a11.567,11.567,0,0,1-7.891-3.253l-2.644,3.142a15.375,15.375,0,0,0,10.429,4M248.415,131.37v-8.392H254.8c3.252,0,5.183,1.464,5.183,4.145v.064c0,2.533-2,4.183-5.141,4.183Zm-4.395,12.612h4.395v-8.724h5.5l6.14,8.724h5.219l-6.758-9.471c3.474-1.005,5.937-3.464,5.937-7.572v-.065a7.554,7.554,0,0,0-2.077-5.4,10.049,10.049,0,0,0-7.213-2.507H244.02Zm-24.648,0h18.72v-3.935H223.771v-6.715H236.3V129.4H223.771V122.9h14.141v-3.935h-18.54Zm-19.246.174h3.892l10.357-25.187h-4.749l-7.5,19.218-7.536-19.218H189.73Zm-20.037-.174h4.392V118.969h-4.392Zm-29.182,0h4.325v-17.79l13.781,17.79h3.681V118.969h-4.321v17.292l-13.39-17.292h-4.076Zm-17.5.386c6.539,0,10.748-3.749,10.748-11.212V118.969h-4.389v14.4c0,4.607-2.394,6.929-6.288,6.929-3.928,0-6.322-2.47-6.322-7.1V118.969h-4.394v14.4c0,7.251,4.146,11,10.645,11" fill="#434343"/>
      <path id="Path_265" data-name="Path 265" d="M401.059,107.759h4.329V89.976l13.787,17.783h3.679v-25h-4.33v17.289L405.14,82.759h-4.081Zm-22.388-9.925,4.285-10,4.32,10Zm-8.677,9.925h4.5l2.571-6.035h11.823l2.539,6.035h4.642l-11-25.175h-4.072Zm-12.36,0h4.427V86.835h7.933V82.759H349.708v4.076h7.926Zm-17.932,0h4.391v-25H339.7Zm-23.07,0h17.533v-4H321.021v-21h-4.389Zm-19.075-3.64a8.534,8.534,0,0,1-8.5-8.859v-.069c0-4.859,3.468-8.826,8.426-8.826s8.5,4.04,8.5,8.9v.073c0,4.863-3.463,8.786-8.429,8.786m-.072,4.074A12.812,12.812,0,0,0,310.593,95.26v-.069a13.074,13.074,0,0,0-26.146.069v.073a12.7,12.7,0,0,0,13.038,12.86M265.379,95.762v-9h5.112c3.28,0,5.389,1.535,5.389,4.464v.069c0,2.612-2.073,4.468-5.389,4.468Zm-4.395,12h4.395V99.725h4.965c5.5,0,10-2.931,10-8.537v-.074c0-5.03-3.639-8.355-9.5-8.355h-9.857Zm-19.069-3.64a8.536,8.536,0,0,1-8.5-8.859v-.069c0-4.859,3.464-8.826,8.429-8.826a8.57,8.57,0,0,1,8.5,8.9v.073c0,4.863-3.468,8.786-8.429,8.786m-.074,4.074a12.812,12.812,0,0,0,13.11-12.933v-.069a13.074,13.074,0,0,0-26.145.069v.073a12.7,12.7,0,0,0,13.035,12.86M207.77,95.154V86.761h6.389c3.251,0,5.181,1.465,5.181,4.142v.073c0,2.538-2,4.178-5.14,4.178Zm-4.4,12.605h4.4V99.046h5.5l6.14,8.713h5.219l-6.748-9.465c3.459-1,5.928-3.463,5.928-7.571v-.069a7.542,7.542,0,0,0-2.076-5.394,10.072,10.072,0,0,0-7.214-2.5H203.375Zm-17.718,0h4.43V86.835h7.929V82.759H177.73v4.076h7.927Zm-30.785,0H173.59v-3.924H159.269V97.116H171.8V93.192H159.269v-6.5H173.41V82.759H154.872Zm-31.716,0h4.321V89.9l7.826,11.72h.141l7.892-11.789v17.925h4.4v-25h-4.678l-7.609,11.824-7.608-11.824h-4.68Z" fill="#434343"/>
      <path id="Path_266" data-name="Path 266" d="M264.274,71.547h4.319V53.758L282.38,71.547h3.681v-25h-4.322V63.832l-13.4-17.287h-4.07ZM245.2,67.9a8.534,8.534,0,0,1-8.493-8.858v-.069c0-4.859,3.462-8.826,8.428-8.826s8.493,4.04,8.493,8.9v.074c0,4.855-3.459,8.784-8.428,8.784m-.065,4.072a12.813,12.813,0,0,0,13.1-12.93v-.069a13.074,13.074,0,0,0-26.145.069v.074a12.691,12.691,0,0,0,13.04,12.856M213.872,50.543c5.256,0,8.688,3.607,8.688,8.5v.074c0,4.886-3.432,8.425-8.688,8.425h-4.928v-17Zm-9.317,21h9.317c7.86,0,13.289-5.467,13.289-12.5v-.069c0-7.038-5.429-12.432-13.289-12.432h-9.317Zm-28.929,0h4.32V53.758l13.789,17.789h3.678v-25h-4.326V63.832L179.7,46.545h-4.071ZM156.551,67.9a8.533,8.533,0,0,1-8.5-8.858v-.069c0-4.859,3.461-8.826,8.427-8.826a8.57,8.57,0,0,1,8.5,8.9v.074c0,4.855-3.461,8.784-8.429,8.784m-.071,4.072a12.811,12.811,0,0,0,13.109-12.93v-.069a13.073,13.073,0,0,0-26.144.069v.074A12.689,12.689,0,0,0,156.48,71.976m-33.324-.429H140.7v-4H127.549v-21h-4.393Z" fill="#434343"/>
      <path id="Path_267" data-name="Path 267" d="M2.812,93.314A2.812,2.812,0,1,1,0,96.128a2.815,2.815,0,0,1,2.812-2.814" fill="#434343"/>
      <path id="Path_268" data-name="Path 268" d="M12.75,93.314a2.812,2.812,0,1,1-2.812,2.814,2.815,2.815,0,0,1,2.812-2.814" fill="#434343"/>
      <path id="Path_269" data-name="Path 269" d="M22.779,93.314a2.812,2.812,0,1,1-2.812,2.814,2.815,2.815,0,0,1,2.812-2.814" fill="#434343"/>
      <path id="Path_270" data-name="Path 270" d="M32.153,93.314a2.812,2.812,0,1,1-2.813,2.814,2.813,2.813,0,0,1,2.813-2.814" fill="#434343"/>
      <path id="Path_271" data-name="Path 271" d="M28.4,86.285a2.813,2.813,0,1,1-2.812,2.81,2.811,2.811,0,0,1,2.812-2.81" fill="#434343"/>
      <path id="Path_272" data-name="Path 272" d="M19.028,83.471a2.812,2.812,0,1,1-2.81,2.814,2.815,2.815,0,0,1,2.81-2.814" fill="#434343"/>
      <path id="Path_273" data-name="Path 273" d="M9.092,80.661a2.812,2.812,0,1,1-2.81,2.81,2.812,2.812,0,0,1,2.81-2.81" fill="#434343"/>
      <path id="Path_274" data-name="Path 274" d="M8.307,119.442a2.814,2.814,0,1,1-1.029,3.842,2.814,2.814,0,0,1,1.029-3.842" fill="#434343"/>
      <path id="Path_275" data-name="Path 275" d="M16.911,114.477a2.813,2.813,0,1,1-1.026,3.841,2.812,2.812,0,0,1,1.026-3.841" fill="#434343"/>
      <path id="Path_276" data-name="Path 276" d="M25.6,109.466a2.813,2.813,0,1,1-1.029,3.832,2.8,2.8,0,0,1,1.029-3.832" fill="#434343"/>
      <path id="Path_277" data-name="Path 277" d="M33.717,104.777a2.813,2.813,0,1,1-1.029,3.841,2.811,2.811,0,0,1,1.029-3.841" fill="#434343"/>
      <path id="Path_278" data-name="Path 278" d="M26.955,100.566a2.809,2.809,0,1,1-1.03,3.833,2.81,2.81,0,0,1,1.03-3.833" fill="#434343"/>
      <path id="Path_279" data-name="Path 279" d="M17.43,102.814a2.813,2.813,0,1,1-1.027,3.841,2.813,2.813,0,0,1,1.027-3.841" fill="#434343"/>
      <path id="Path_280" data-name="Path 280" d="M7.418,105.347a2.814,2.814,0,1,1-1.027,3.843,2.8,2.8,0,0,1,1.027-3.843" fill="#434343"/>
      <path id="Path_281" data-name="Path 281" d="M26.131,139.332a2.812,2.812,0,1,1,1.029,3.842,2.81,2.81,0,0,1-1.029-3.842" fill="#434343"/>
      <path id="Path_282" data-name="Path 282" d="M31.1,130.726a2.813,2.813,0,1,1,1.03,3.833,2.817,2.817,0,0,1-1.03-3.833" fill="#434343"/>
      <path id="Path_283" data-name="Path 283" d="M36.114,122.04a2.813,2.813,0,1,1,1.029,3.832,2.813,2.813,0,0,1-1.029-3.832" fill="#434343"/>
      <path id="Path_284" data-name="Path 284" d="M40.8,113.925a2.813,2.813,0,1,1,1.029,3.832,2.8,2.8,0,0,1-1.029-3.832" fill="#434343"/>
      <path id="Path_285" data-name="Path 285" d="M32.838,113.647a2.815,2.815,0,1,1,1.029,3.843,2.811,2.811,0,0,1-1.029-3.843" fill="#434343"/>
      <path id="Path_286" data-name="Path 286" d="M25.716,120.364a2.811,2.811,0,1,1,1.027,3.841,2.811,2.811,0,0,1-1.027-3.841" fill="#434343"/>
      <path id="Path_287" data-name="Path 287" d="M18.312,127.567a2.813,2.813,0,1,1,1.03,3.834,2.8,2.8,0,0,1-1.03-3.834" fill="#434343"/>
      <path id="Path_288" data-name="Path 288" d="M51.511,147.632a2.811,2.811,0,1,1,2.809,2.82,2.812,2.812,0,0,1-2.809-2.82" fill="#434343"/>
      <path id="Path_289" data-name="Path 289" d="M51.511,137.7a2.811,2.811,0,1,1,2.809,2.809,2.8,2.8,0,0,1-2.809-2.809" fill="#434343"/>
      <path id="Path_290" data-name="Path 290" d="M51.508,127.669a2.813,2.813,0,1,1,2.812,2.809,2.814,2.814,0,0,1-2.812-2.809" fill="#434343"/>
      <path id="Path_291" data-name="Path 291" d="M51.511,118.3a2.811,2.811,0,1,1,2.809,2.81,2.813,2.813,0,0,1-2.809-2.81" fill="#434343"/>
      <path id="Path_292" data-name="Path 292" d="M44.479,122.049a2.811,2.811,0,1,1,2.81,2.81,2.816,2.816,0,0,1-2.81-2.81" fill="#434343"/>
      <path id="Path_293" data-name="Path 293" d="M41.667,131.418a2.811,2.811,0,1,1,2.81,2.81,2.813,2.813,0,0,1-2.81-2.81" fill="#434343"/>
      <path id="Path_294" data-name="Path 294" d="M38.855,141.358a2.811,2.811,0,1,1,2.81,2.811,2.807,2.807,0,0,1-2.81-2.811" fill="#434343"/>
      <path id="Path_295" data-name="Path 295" d="M77.642,142.141a2.811,2.811,0,1,1,3.838,1.033,2.807,2.807,0,0,1-3.838-1.033" fill="#434343"/>
      <path id="Path_296" data-name="Path 296" d="M72.673,133.537a2.812,2.812,0,1,1,3.84,1.031,2.81,2.81,0,0,1-3.84-1.031" fill="#434343"/>
      <path id="Path_297" data-name="Path 297" d="M67.657,124.85a2.812,2.812,0,1,1,3.839,1.031,2.811,2.811,0,0,1-3.839-1.031" fill="#434343"/>
      <path id="Path_298" data-name="Path 298" d="M62.971,116.734a2.813,2.813,0,1,1,3.839,1.022,2.811,2.811,0,0,1-3.839-1.022" fill="#434343"/>
      <path id="Path_299" data-name="Path 299" d="M58.756,123.5a2.813,2.813,0,1,1,3.839,1.022,2.81,2.81,0,0,1-3.839-1.022" fill="#434343"/>
      <path id="Path_300" data-name="Path 300" d="M61.008,133.021a2.813,2.813,0,1,1,3.84,1.023,2.825,2.825,0,0,1-3.84-1.023" fill="#434343"/>
      <path id="Path_301" data-name="Path 301" d="M63.542,143.026a2.812,2.812,0,1,1,3.839,1.031,2.8,2.8,0,0,1-3.839-1.031" fill="#434343"/>
      <path id="Path_302" data-name="Path 302" d="M97.524,124.316a2.814,2.814,0,1,1,3.838-1.023,2.81,2.81,0,0,1-3.838,1.023" fill="#434343"/>
      <path id="Path_303" data-name="Path 303" d="M88.92,119.35a2.812,2.812,0,1,1,3.839-1.032,2.809,2.809,0,0,1-3.839,1.032" fill="#434343"/>
      <path id="Path_304" data-name="Path 304" d="M80.232,114.338a2.812,2.812,0,1,1,3.839-1.032,2.814,2.814,0,0,1-3.839,1.032" fill="#434343"/>
      <path id="Path_305" data-name="Path 305" d="M72.114,109.65a2.814,2.814,0,1,1,3.839-1.033,2.824,2.824,0,0,1-3.839,1.033" fill="#434343"/>
      <path id="Path_306" data-name="Path 306" d="M71.847,117.609a2.813,2.813,0,1,1,3.844-1.022,2.811,2.811,0,0,1-3.844,1.022" fill="#434343"/>
      <path id="Path_307" data-name="Path 307" d="M78.558,124.73a2.813,2.813,0,1,1,3.839-1.022,2.812,2.812,0,0,1-3.839,1.022" fill="#434343"/>
      <path id="Path_308" data-name="Path 308" d="M85.757,132.138A2.814,2.814,0,1,1,89.6,131.1a2.813,2.813,0,0,1-3.844,1.033" fill="#434343"/>
      <path id="Path_309" data-name="Path 309" d="M105.831,98.938a2.81,2.81,0,1,1,2.813-2.81,2.811,2.811,0,0,1-2.813,2.81" fill="#434343"/>
      <path id="Path_310" data-name="Path 310" d="M95.895,98.938a2.81,2.81,0,1,1,2.811-2.81,2.811,2.811,0,0,1-2.811,2.81" fill="#434343"/>
      <path id="Path_311" data-name="Path 311" d="M85.863,98.938a2.81,2.81,0,1,1,2.813-2.81,2.81,2.81,0,0,1-2.813,2.81" fill="#434343"/>
      <path id="Path_312" data-name="Path 312" d="M76.49,98.938a2.81,2.81,0,1,1,2.812-2.81,2.811,2.811,0,0,1-2.812,2.81" fill="#434343"/>
      <path id="Path_313" data-name="Path 313" d="M80.239,105.974a2.814,2.814,0,1,1,2.813-2.82,2.814,2.814,0,0,1-2.813,2.82" fill="#434343"/>
      <path id="Path_314" data-name="Path 314" d="M89.615,108.784a2.809,2.809,0,1,1,2.809-2.81,2.814,2.814,0,0,1-2.809,2.81" fill="#434343"/>
      <path id="Path_315" data-name="Path 315" d="M99.55,111.594a2.81,2.81,0,1,1,2.81-2.81,2.815,2.815,0,0,1-2.81,2.81" fill="#434343"/>
      <path id="Path_316" data-name="Path 316" d="M100.336,72.807a2.813,2.813,0,1,1,1.029-3.837,2.806,2.806,0,0,1-1.029,3.837" fill="#434343"/>
      <path id="Path_317" data-name="Path 317" d="M91.731,77.777a2.813,2.813,0,1,1,1.027-3.841,2.806,2.806,0,0,1-1.027,3.841" fill="#434343"/>
      <path id="Path_318" data-name="Path 318" d="M83.044,82.793a2.813,2.813,0,1,1,1.029-3.841,2.819,2.819,0,0,1-1.029,3.841" fill="#434343"/>
      <path id="Path_319" data-name="Path 319" d="M74.925,87.478a2.813,2.813,0,1,1,1.03-3.837,2.812,2.812,0,0,1-1.03,3.837" fill="#434343"/>
      <path id="Path_320" data-name="Path 320" d="M81.688,91.692a2.812,2.812,0,1,1,1.03-3.841,2.807,2.807,0,0,1-1.03,3.841" fill="#434343"/>
      <path id="Path_321" data-name="Path 321" d="M91.213,89.44a2.814,2.814,0,1,1,1.03-3.842,2.812,2.812,0,0,1-1.03,3.842" fill="#434343"/>
      <path id="Path_322" data-name="Path 322" d="M101.225,86.907a2.814,2.814,0,1,1,1.026-3.841,2.807,2.807,0,0,1-1.026,3.841" fill="#434343"/>
      <path id="Path_323" data-name="Path 323" d="M82.512,52.927a2.814,2.814,0,1,1-1.03-3.841,2.811,2.811,0,0,1,1.03,3.841" fill="#434343"/>
      <path id="Path_324" data-name="Path 324" d="M77.545,61.531a2.814,2.814,0,1,1-1.029-3.846,2.808,2.808,0,0,1,1.029,3.846" fill="#434343"/>
      <path id="Path_325" data-name="Path 325" d="M72.529,70.219A2.813,2.813,0,1,1,71.5,66.373a2.816,2.816,0,0,1,1.027,3.846" fill="#434343"/>
      <path id="Path_326" data-name="Path 326" d="M67.841,78.335a2.813,2.813,0,1,1-1.027-3.842,2.811,2.811,0,0,1,1.027,3.842" fill="#434343"/>
      <path id="Path_327" data-name="Path 327" d="M75.8,78.6a2.812,2.812,0,1,1-1.027-3.837A2.806,2.806,0,0,1,75.8,78.6" fill="#434343"/>
      <path id="Path_328" data-name="Path 328" d="M82.927,71.89A2.812,2.812,0,1,1,81.9,68.045a2.81,2.81,0,0,1,1.027,3.845" fill="#434343"/>
      <path id="Path_329" data-name="Path 329" d="M90.331,64.691a2.813,2.813,0,1,1-1.026-3.846,2.806,2.806,0,0,1,1.026,3.846" fill="#434343"/>
      <path id="Path_330" data-name="Path 330" d="M57.135,44.618a2.813,2.813,0,1,1-2.812-2.809,2.812,2.812,0,0,1,2.812,2.809" fill="#434343"/>
      <path id="Path_331" data-name="Path 331" d="M57.132,54.553a2.811,2.811,0,1,1-2.81-2.81,2.813,2.813,0,0,1,2.81,2.81" fill="#434343"/>
      <path id="Path_332" data-name="Path 332" d="M57.135,64.585a2.812,2.812,0,1,1-2.812-2.814,2.812,2.812,0,0,1,2.812,2.814" fill="#434343"/>
      <path id="Path_333" data-name="Path 333" d="M57.132,73.959a2.811,2.811,0,1,1-2.81-2.814,2.809,2.809,0,0,1,2.81,2.814" fill="#434343"/>
      <path id="Path_334" data-name="Path 334" d="M64.164,70.209a2.811,2.811,0,1,1-2.81-2.81,2.811,2.811,0,0,1,2.81,2.81" fill="#434343"/>
      <path id="Path_335" data-name="Path 335" d="M66.976,60.836a2.813,2.813,0,1,1-2.811-2.815,2.81,2.81,0,0,1,2.811,2.815" fill="#434343"/>
      <path id="Path_336" data-name="Path 336" d="M69.787,50.9a2.813,2.813,0,1,1-2.809-2.815A2.812,2.812,0,0,1,69.787,50.9" fill="#434343"/>
      <path id="Path_337" data-name="Path 337" d="M31,50.113a2.812,2.812,0,1,1-3.844-1.027A2.8,2.8,0,0,1,31,50.113" fill="#434343"/>
      <path id="Path_338" data-name="Path 338" d="M35.969,58.717a2.812,2.812,0,1,1-3.839-1.028,2.81,2.81,0,0,1,3.839,1.028" fill="#434343"/>
      <path id="Path_339" data-name="Path 339" d="M40.986,67.4a2.812,2.812,0,1,1-3.845-1.027A2.813,2.813,0,0,1,40.986,67.4" fill="#434343"/>
      <path id="Path_340" data-name="Path 340" d="M45.673,75.52a2.814,2.814,0,1,1-3.84-1.027,2.819,2.819,0,0,1,3.84,1.027" fill="#434343"/>
      <path id="Path_341" data-name="Path 341" d="M49.887,68.759a2.814,2.814,0,1,1-3.839-1.028,2.812,2.812,0,0,1,3.839,1.028" fill="#434343"/>
      <path id="Path_342" data-name="Path 342" d="M47.634,59.233a2.813,2.813,0,1,1-3.844-1.027,2.818,2.818,0,0,1,3.844,1.027" fill="#434343"/>
      <path id="Path_343" data-name="Path 343" d="M45.1,49.224A2.812,2.812,0,1,1,41.257,48.2,2.809,2.809,0,0,1,45.1,49.224" fill="#434343"/>
      <path id="Path_344" data-name="Path 344" d="M11.119,67.939A2.811,2.811,0,1,1,7.28,68.965a2.806,2.806,0,0,1,3.839-1.026" fill="#434343"/>
      <path id="Path_345" data-name="Path 345" d="M19.726,72.9a2.813,2.813,0,1,1-3.846,1.027A2.811,2.811,0,0,1,19.726,72.9" fill="#434343"/>
      <path id="Path_346" data-name="Path 346" d="M28.411,77.92a2.813,2.813,0,1,1-3.844,1.027,2.812,2.812,0,0,1,3.844-1.027" fill="#434343"/>
      <path id="Path_347" data-name="Path 347" d="M36.529,82.609a2.811,2.811,0,1,1-3.839,1.027,2.807,2.807,0,0,1,3.839-1.027" fill="#434343"/>
      <path id="Path_348" data-name="Path 348" d="M36.8,74.645a2.813,2.813,0,1,1-3.839,1.027A2.807,2.807,0,0,1,36.8,74.645" fill="#434343"/>
      <path id="Path_349" data-name="Path 349" d="M30.085,67.52a2.813,2.813,0,1,1-3.844,1.031,2.816,2.816,0,0,1,3.844-1.031" fill="#434343"/>
      <path id="Path_350" data-name="Path 350" d="M22.885,60.117a2.814,2.814,0,1,1-3.844,1.027,2.811,2.811,0,0,1,3.844-1.027" fill="#434343"/>
    </g>
  </g>
</svg>